<svg width="36" height="34" viewBox="0 0 36 34" fill="none" xmlns="http://www.w3.org/2000/svg">
<ellipse cx="18" cy="17" rx="18" ry="17" fill="url(#paint0_linear_1479_2036)"/>
<path d="M18.0969 32.7722C8.78024 32.7722 1.19531 25.6981 1.19531 16.9979C1.19531 8.29772 8.78024 1.22852 18.0969 1.22852C27.4136 1.22852 34.9985 8.30264 34.9985 17.0028C34.9985 25.703 27.4136 32.7722 18.0969 32.7722ZM9.6698 22.9176C11.5963 25.3002 14.6597 26.8476 18.0969 26.8476C23.9133 26.8476 28.6453 22.4312 28.6453 17.0028C28.6453 11.5744 23.9133 7.15309 18.0969 7.15309C12.2806 7.15309 7.54855 11.5695 7.54855 16.9979C7.54855 18.6829 8.00649 20.2746 8.81183 21.6649C8.82235 21.434 8.89604 21.2178 9.01711 21.0361C8.98553 20.9968 8.95921 20.9525 8.93289 20.9034C8.0907 19.1545 7.82752 17.1502 8.19071 15.2539C8.56443 13.2889 9.56453 11.5351 11.0805 10.1891C11.2384 10.0417 11.4173 9.90905 11.5805 9.79606C11.7174 9.6929 11.849 9.60447 11.9595 9.4964C12.0174 9.44236 12.0858 9.39814 12.1595 9.36376C12.2385 9.32937 12.3701 9.24094 12.4385 9.17708C12.4701 9.1476 12.5438 9.09356 12.5859 9.069C14.2018 8.16509 15.7388 7.68365 17.2968 7.60505C17.7443 7.60505 18.0811 7.89981 18.1022 8.27808C18.1127 8.47458 18.0443 8.65634 17.9074 8.79881C17.7706 8.94127 17.5811 9.02479 17.3758 9.03461C16.1125 9.09848 14.8387 9.49148 13.4912 10.2284C13.5491 10.2235 13.607 10.2185 13.6649 10.2185C14.4334 10.2185 15.0545 10.8031 15.0545 11.5155C15.0545 11.712 15.0072 11.9036 14.9229 12.0706C15.2861 11.9478 15.6388 11.8593 15.9493 11.7955C15.9493 11.7218 15.9493 11.6432 15.9493 11.5597C15.9493 11.4614 15.9493 11.3583 15.9493 11.26C15.9493 11.2158 15.9493 11.1765 15.9546 11.1372V11.0439C15.9546 10.7638 16.1757 10.533 16.4599 10.4937C16.5389 10.4691 16.6178 10.4593 16.702 10.4593C16.7757 10.4593 16.8494 10.4691 16.9231 10.4838L17.5811 10.4789C17.7179 10.4789 17.8601 10.4789 17.9969 10.4838C18.018 10.4789 18.0759 10.4691 18.1232 10.4691C18.1811 10.4691 18.239 10.474 18.2917 10.4887C18.3548 10.4937 18.418 10.5084 18.4759 10.528C18.5549 10.4937 18.6391 10.474 18.7286 10.474H20.2708C20.2971 10.474 20.3287 10.4691 20.3445 10.4691C20.3761 10.4691 20.4077 10.4691 20.434 10.474C20.4445 10.4347 20.4603 10.3905 20.4814 10.3512C20.6024 10.0957 20.8814 9.9287 21.1814 9.9287C21.292 9.9287 21.3972 9.94835 21.492 9.99257C21.8499 10.1449 22.1973 10.3168 22.5289 10.5133C22.5289 10.4838 22.5237 10.4494 22.5237 10.42C22.5237 10.3364 22.5342 10.2529 22.55 10.1694C21.8552 9.7715 21.0972 9.46692 20.3024 9.27042C19.8918 9.16725 19.6497 8.77425 19.7602 8.39106C19.8497 8.08157 20.155 7.86051 20.5024 7.86051C20.5551 7.86051 20.6498 7.87033 20.6972 7.88507C21.6604 8.12578 22.5763 8.49914 23.4237 8.9904C23.5027 9.03461 23.5659 9.08865 23.6185 9.15251C23.7132 9.13286 23.8133 9.12304 23.9185 9.12304C24.687 9.12304 25.3081 9.70764 25.3081 10.42C25.3081 10.4249 25.3081 10.4347 25.3081 10.4396C25.366 10.4691 25.4187 10.5084 25.466 10.5526C26.7767 11.7709 27.6557 13.4363 28.0084 15.362C28.0979 15.8533 28.1505 16.3593 28.1716 16.8702C28.1768 16.9783 28.1558 17.0814 28.1084 17.1797C28.3716 17.4155 28.5348 17.7446 28.5348 18.1131C28.5348 18.5847 28.2663 18.9973 27.861 19.2233C27.861 19.2774 27.8505 19.3314 27.8347 19.3854C27.2346 21.5028 25.845 23.3695 23.9238 24.6419C23.4185 24.976 22.8711 25.2707 22.3078 25.5163C22.2026 25.5605 22.092 25.5851 21.9815 25.5851C21.771 25.5851 21.6078 25.5065 21.4814 25.4033C21.4709 25.4869 21.4393 25.5704 21.392 25.649C21.292 25.816 21.1288 25.9388 20.934 25.9929C20.0129 26.2434 19.0602 26.3711 18.0917 26.3711C15.1387 26.3711 12.349 25.1675 10.4278 23.0748C10.4014 23.0453 10.3804 23.0158 10.3593 22.9864C10.3067 22.9913 10.2541 22.9962 10.1962 22.9962C10.0119 23.0158 9.83297 22.9814 9.6698 22.9176ZM11.5331 22.0972C11.5542 22.1168 11.5805 22.1365 11.6016 22.161C13.228 23.9394 15.5967 24.9563 18.0969 24.9563C18.918 24.9563 19.7287 24.8482 20.5077 24.637C20.5603 24.6222 20.6656 24.6075 20.7235 24.6075C20.7235 24.6075 20.5972 24.47 20.5603 24.4307C20.4761 24.3619 20.4077 24.2784 20.3603 24.185C20.3498 24.1654 20.3445 24.1506 20.3392 24.131C20.234 24.1457 20.1287 24.1457 20.0445 24.1457H19.755L19.2812 24.1408C19.1918 24.1408 19.1023 24.1408 19.0128 24.1457C18.9812 24.1457 18.9444 24.1506 18.9128 24.1506C18.7286 24.1506 18.5706 24.1162 18.4391 24.0426C18.3338 24.1015 18.2075 24.131 18.0759 24.1359L17.76 24.1408C17.5863 24.1457 17.4126 24.1506 17.2337 24.1506C16.9337 24.1506 16.6863 24.1359 16.4547 24.1113C16.3336 24.0966 16.0494 24.0278 15.9336 23.6741C15.8967 23.6004 15.8862 23.5218 15.8914 23.4481C15.8599 23.3106 15.8546 23.1829 15.8599 23.065C15.4019 22.9864 14.9914 22.8734 14.6334 22.7112C14.6387 22.7309 14.644 22.7456 14.6492 22.7653C14.6861 22.952 14.6492 23.1436 14.5334 23.3008C14.3913 23.4973 14.1544 23.6152 13.8965 23.6152C13.7439 23.6152 13.5965 23.5759 13.4702 23.4924C12.7596 23.0404 12.1227 22.4902 11.591 21.8614C11.5752 21.9498 11.5542 22.0235 11.5331 22.0972ZM21.0656 23.1632C21.4235 23.1632 21.6288 23.3892 21.7973 23.571C21.8867 23.6643 22.1552 23.9689 22.1763 23.9885C22.471 23.8362 22.7605 23.6692 23.0342 23.4874C24.6239 22.4361 25.7819 20.9034 26.3082 19.1693C26.2451 19.1251 26.1872 19.0759 26.1345 19.0268C25.7555 20.3925 24.9818 21.6403 23.8659 22.6474C23.7238 22.7751 23.5343 22.8488 23.3343 22.8488C23.229 22.8488 23.1237 22.8292 23.0237 22.7849C22.9026 22.839 22.7605 22.8635 22.5973 22.8635C22.5868 22.8635 22.5289 22.8635 22.5184 22.8635C22.2815 22.8537 22.0447 22.8488 21.8078 22.8488L20.9656 22.8537C20.9656 22.9274 20.9656 23.173 20.9656 23.173C20.9972 23.1681 21.0288 23.1632 21.0656 23.1632ZM11.7858 19.3461C12.0595 20.0142 12.4648 20.6381 12.9649 21.1785C12.5753 20.4122 12.449 19.4984 12.6174 18.6633C12.649 18.5159 12.6859 18.3734 12.7332 18.231C12.6227 18.285 12.5069 18.3096 12.3806 18.3096C12.3385 18.3096 12.2543 18.2997 12.2069 18.2899C12.2121 18.3292 12.2122 18.3685 12.2122 18.4078C12.2122 18.7812 12.049 19.1103 11.7858 19.3461ZM23.5448 14.3353C23.6238 14.5809 23.6659 14.8413 23.6659 15.1115C23.6659 16.9291 23.6238 18.8352 23.529 20.7659C23.529 20.7904 23.529 20.815 23.5237 20.8396C24.387 19.7588 24.8555 18.452 24.8555 17.0765C24.8555 16.0596 24.5923 15.0476 24.087 14.1535C24.0554 14.0995 24.0343 14.0405 24.0185 13.9816C23.9975 14.0061 23.9764 14.0258 23.9606 14.0405C23.9133 14.1142 23.8448 14.1781 23.7711 14.2272C23.7132 14.2763 23.6343 14.3107 23.5448 14.3353ZM10.3751 20.4269C10.4699 20.4367 10.5594 20.4564 10.6488 20.4858C10.5225 20.2451 10.4067 19.9995 10.312 19.749C10.2909 19.6998 10.2804 19.6507 10.2751 19.6016C10.1699 19.5574 10.0751 19.5033 9.98562 19.4395C10.0856 19.7342 10.2067 20.029 10.3383 20.309C10.3488 20.3532 10.3646 20.3925 10.3751 20.4269ZM17.2653 19.9848C17.4495 20.0241 17.6285 20.0388 17.7969 20.0388C18.1232 20.0388 18.4338 19.9749 18.7391 19.8374C18.9812 19.6507 19.1549 19.4788 19.2339 19.2675C19.3444 18.9728 19.3655 18.6535 19.3655 18.3096C18.6865 18.3145 18.0443 18.3243 17.4495 18.511C17.1758 18.5994 16.96 18.7664 16.8494 18.9875C16.7442 19.1988 16.7389 19.4444 16.8336 19.6753C16.86 19.7391 16.9389 19.7883 17.1126 19.8914C17.1652 19.9258 17.2126 19.9553 17.2653 19.9848ZM12.3753 11.034C12.2964 11.093 12.2174 11.1519 12.149 11.2207C10.8594 12.3653 10.0172 13.8489 9.69612 15.5094C9.554 16.2561 9.52242 17.0176 9.60664 17.7741C9.68033 17.6513 9.77507 17.5432 9.88561 17.4499C9.82245 17.3467 9.80139 17.2288 9.80139 17.0765C9.80139 15.1164 10.5909 13.2447 12.0174 11.8102C12.0911 11.7365 12.1806 11.6776 12.2806 11.6383C12.2753 11.599 12.2753 11.5646 12.2753 11.5253C12.27 11.3534 12.3069 11.1863 12.3753 11.034ZM14.3123 14.1879C13.2333 15.2196 13.0543 16.7867 13.1333 17.4204C13.2544 17.2337 13.3965 17.0618 13.5544 16.8997C13.7176 16.7326 13.9018 16.5951 14.0965 16.487C14.5492 16.1873 15.0861 15.9663 15.7388 15.8091C15.9283 15.7649 16.123 15.7403 16.3125 15.7157C16.3862 15.7059 16.4599 15.6961 16.5283 15.6863C17.0916 15.6273 17.6127 15.6224 18.1232 15.6175C18.5233 15.6126 18.897 15.6077 19.276 15.5831C19.3286 15.5684 19.376 15.5585 19.4181 15.5536C19.3339 15.0231 19.0707 14.6988 18.1706 14.6988C18.1022 14.6988 18.0285 14.6988 17.9548 14.7037C17.2337 14.743 16.5073 14.9297 15.7862 15.2539C15.6493 15.3178 15.5177 15.3473 15.3914 15.3473C15.2177 15.3473 14.9019 15.2932 14.7019 14.915C14.5703 14.6644 14.4439 14.4286 14.3123 14.1879ZM24.7976 13.1071C25.0713 13.117 25.3239 13.2594 25.4502 13.4903C26.0608 14.576 26.3872 15.7992 26.3924 17.0323C26.4661 16.9881 26.5451 16.9488 26.6293 16.9193C26.6135 16.4772 26.5661 16.04 26.4872 15.6175C26.1977 14.016 25.4871 12.6405 24.4344 11.6383C24.3238 11.6776 24.208 11.7071 24.087 11.7218C24.308 11.933 24.5133 12.159 24.7028 12.3948C24.887 12.6208 24.9186 12.8566 24.7976 13.1071ZM11.6016 16.654C11.7121 15.5241 12.2121 14.1437 13.2122 13.1857C13.3596 13.0482 13.5596 12.9696 13.7597 12.9696C13.786 12.9696 13.807 12.9696 13.8334 12.9745C13.8439 12.9156 13.8544 12.8615 13.8755 12.8173C13.807 12.8271 13.7333 12.832 13.6649 12.832C13.4965 12.832 13.3333 12.8026 13.1807 12.7485C13.1701 12.7633 13.1543 12.7731 13.1438 12.7878C12.1016 13.8342 11.4752 15.1753 11.3594 16.5902C11.4331 16.6098 11.5121 16.6295 11.6016 16.654ZM21.0393 11.9969C21.6551 12.2278 22.2078 12.6012 22.7553 13.1612C22.7974 13.1121 22.8342 13.0678 22.8658 13.0433C22.9237 12.9794 23.0026 12.9008 23.0816 12.8222C22.5026 12.2376 21.8131 11.7513 21.0446 11.4074C21.0551 11.5892 21.0551 11.7906 21.0393 11.9969Z" fill="url(#paint1_linear_1479_2036)"/>
<path d="M23.0712 15.116C23.0712 14.5952 22.8923 14.1138 22.4975 13.7208C22.387 13.7797 22.4449 13.6913 22.4343 13.6618C22.4343 13.6618 22.4343 13.6618 22.4396 13.6618C21.9711 13.1608 21.4395 12.7383 20.7658 12.4926C20.4868 12.419 20.4236 12.2421 20.4447 11.9866C20.4657 11.7459 20.4552 11.5003 20.4499 11.2547C20.4499 11.2006 20.4605 11.1319 20.4394 11.0876V11.0483H20.3868C20.3657 11.0434 20.3341 11.0385 20.292 11.0483C20.1657 11.0483 20.0341 11.0483 19.9078 11.0483C19.8762 11.0483 19.8446 11.0483 19.813 11.0483C19.5762 11.0483 19.3393 11.0483 19.1024 11.0483H18.7287V11.6526C18.7235 11.7214 18.7235 11.7901 18.7287 11.8589V11.9719C18.7182 12.0947 18.6287 12.1045 18.5234 12.1045C18.4129 12.0996 18.2813 12.134 18.2655 11.9719C18.2603 11.9228 18.255 11.8786 18.2497 11.8294V11.0631H18.1918C18.1339 11.0287 18.0444 11.0582 17.9813 11.0582C17.6023 11.0533 17.2181 11.0582 16.8391 11.0582C16.7285 11.0189 16.6548 11.0238 16.6075 11.0631H16.5496V11.1859C16.5443 11.2105 16.5443 11.235 16.5443 11.2645C16.5496 11.4757 16.539 11.6919 16.5496 11.9031V12.0898C16.5338 12.2224 16.4443 12.2863 16.2706 12.3207C15.739 12.4288 15.2126 12.5565 14.7178 12.7727C14.4494 12.8856 14.3494 13.0428 14.4915 13.2983C14.7441 13.7552 14.9915 14.2071 15.2337 14.664C15.3073 14.8016 15.3758 14.8163 15.5232 14.7524C16.2811 14.4085 17.0759 14.1924 17.9181 14.1482C19.1182 14.0794 19.892 14.4675 20.0236 15.6023C20.0762 16.0592 20.0657 16.0592 19.5762 16.0936C19.5077 16.0985 19.4446 16.123 19.3814 16.1378C18.4655 16.2016 17.5444 16.1476 16.6285 16.2409C16.3811 16.2802 16.1337 16.295 15.8916 16.3539C15.3337 16.4915 14.8389 16.6831 14.4231 16.9631C14.2757 17.0417 14.1335 17.1449 13.9967 17.2824C13.5809 17.7049 13.323 18.2207 13.2124 18.7611C13.2124 18.766 13.2124 18.7709 13.2124 18.7758C13.0598 19.5324 13.1861 20.338 13.544 21.0061C13.6177 21.1388 13.6967 21.2518 13.7861 21.35C13.7967 21.3648 13.8019 21.3746 13.8125 21.3893C14.402 22.1311 15.2547 22.4357 16.2022 22.5536C16.4022 22.5782 16.4811 22.6371 16.4759 22.8287C16.4706 23.0301 16.4338 23.2315 16.5075 23.433C16.5127 23.4526 16.5127 23.4674 16.4969 23.4821C16.5075 23.5116 16.518 23.5607 16.5338 23.5607C17.0444 23.6196 17.5549 23.5902 18.0655 23.5803C18.2129 23.5803 18.1971 23.4624 18.155 23.3642C18.1497 23.1087 18.1497 22.8582 18.1445 22.6027C18.1655 22.3178 18.3287 22.1704 18.6498 22.1459C18.6498 22.534 18.6656 22.9171 18.6445 23.2954C18.6287 23.546 18.7287 23.6098 18.9761 23.5951C19.2604 23.5803 19.5446 23.5951 19.8341 23.5902C20.4605 23.5853 20.371 23.6491 20.371 23.0743C20.3763 22.4554 20.371 21.8364 20.371 21.1486C20.6289 21.5613 20.6815 21.9788 20.9395 22.3031C21.4764 22.3031 22.0132 22.2883 22.5501 22.3129C22.8028 22.3227 22.9081 22.2589 22.887 22.0231C22.9712 21.6006 22.9186 21.1732 22.9396 20.7458C23.0239 18.8692 23.0712 16.9926 23.0712 15.116ZM19.7973 19.4587C19.6551 19.8271 19.3762 20.0777 19.0603 20.3135C18.4024 20.623 17.7181 20.6721 17.0128 20.5051C16.7443 20.3184 16.4127 20.2152 16.2759 19.8812C15.9548 19.105 16.3706 18.2698 17.2549 17.9898C18.076 17.7295 18.9393 17.7688 19.792 17.7589C19.9131 17.7589 19.9499 17.813 19.9552 17.9161C19.9657 18.432 19.992 18.9576 19.7973 19.4587ZM18.0971 1.7832C9.09096 1.7832 1.79553 8.59696 1.79553 16.9975C1.79553 25.398 9.09623 32.2167 18.0971 32.2167C27.1032 32.2167 34.3986 25.4029 34.3986 17.0024C34.3986 8.60187 27.1032 1.7832 18.0971 1.7832ZM18.0971 27.4023C11.9386 27.4023 6.94866 22.7452 6.94866 16.9975C6.94866 11.2498 11.9386 6.59262 18.0971 6.59262C24.2556 6.59262 29.2455 11.2498 29.2455 16.9975C29.2455 22.7452 24.2556 27.4023 18.0971 27.4023ZM9.70155 20.7556C9.78577 20.7212 9.82788 20.623 9.78577 20.5444C9.02254 18.9527 8.78041 17.1301 9.11202 15.4107C9.45416 13.6324 10.3542 12.0456 11.7281 10.8224C11.8597 10.6995 12.0018 10.5964 12.1597 10.4834C12.3071 10.3753 12.465 10.2623 12.6018 10.1346C12.7387 10.0658 12.9387 9.94301 13.0861 9.81037C14.5599 8.98997 15.9495 8.55275 17.3444 8.48397C17.4391 8.47906 17.5128 8.40537 17.5075 8.31694C17.5023 8.22852 17.4181 8.15974 17.3286 8.16465C15.8758 8.23834 14.4231 8.6903 12.8966 9.54509C12.8861 9.55 12.8755 9.55983 12.865 9.56965C12.7439 9.68264 12.5545 9.80054 12.4281 9.85949C12.4123 9.86932 12.3965 9.87914 12.386 9.88897C12.2544 10.0118 12.1123 10.1149 11.9544 10.2279C11.7965 10.3409 11.6386 10.4588 11.4965 10.5915C10.0753 11.8589 9.13308 13.5046 8.78041 15.3518C8.43827 17.135 8.68566 19.0264 9.48047 20.6721C9.50679 20.731 9.56996 20.7654 9.63839 20.7654C9.65418 20.7703 9.6805 20.7654 9.70155 20.7556ZM20.771 25.4766C20.8605 25.452 20.9131 25.3636 20.8868 25.2801C20.8605 25.1966 20.7658 25.1475 20.6763 25.172C19.8446 25.398 18.9761 25.5159 18.0971 25.5159C15.4231 25.5159 12.8913 24.4253 11.1491 22.5291C11.0859 22.4603 10.9806 22.4554 10.9069 22.5094C10.8332 22.5684 10.828 22.6666 10.8859 22.7354C12.6913 24.7053 15.3179 25.8352 18.0918 25.8352C19.0024 25.8352 19.9025 25.7124 20.771 25.4766ZM21.9817 25.0443C21.8974 25.0443 21.829 24.9706 21.7027 24.8331C21.6185 24.7397 21.5027 24.612 21.3921 24.4843C21.2342 24.3074 21.0237 24.0716 20.9658 24.0176C20.9395 24.0028 20.9184 23.9783 20.9026 23.9488C20.8658 23.8702 20.9026 23.7719 20.9868 23.7375C21.1132 23.6835 21.1763 23.7523 21.3395 23.9291C21.4237 24.0225 21.5395 24.1502 21.6501 24.273C21.7711 24.4106 21.929 24.5825 22.0185 24.6808C22.4922 24.4695 22.9449 24.219 23.3713 23.939C25.1135 22.7845 26.3715 21.0897 26.919 19.1738C26.9453 19.0902 27.04 19.0362 27.1295 19.0608C27.219 19.0853 27.2769 19.1688 27.2506 19.2573C26.6874 21.2469 25.3767 23.0007 23.5713 24.1993C23.0923 24.5137 22.5817 24.7938 22.0501 25.0197C22.029 25.0345 22.008 25.0443 21.9817 25.0443ZM27.4085 17.0712C27.5032 17.0663 27.5769 16.9926 27.5717 16.9041C27.5506 16.4178 27.5032 15.9364 27.419 15.4697C27.0874 13.6569 26.2663 12.0996 25.0451 10.9599C24.9767 10.896 24.8714 10.896 24.803 10.9599C24.7346 11.0238 24.7346 11.122 24.803 11.1859C25.9768 12.2765 26.7663 13.7748 27.0822 15.5188C27.1664 15.9707 27.2137 16.4374 27.2348 16.9091C27.2401 16.9975 27.3137 17.0613 27.4085 17.0613C27.4032 17.0712 27.4032 17.0712 27.4085 17.0712ZM23.1607 9.69738C23.2134 9.62369 23.187 9.52544 23.1081 9.47631C22.3133 9.01453 21.45 8.66082 20.5447 8.43976C20.4552 8.41519 20.3605 8.46923 20.3341 8.55275C20.3078 8.63626 20.3657 8.72469 20.4552 8.74925C21.3237 8.9654 22.1554 9.30437 22.9239 9.75142C22.9502 9.76615 22.9818 9.77598 23.0133 9.77598C23.0712 9.77107 23.1291 9.7465 23.1607 9.69738ZM23.3239 13.8092C23.2713 13.8092 23.2186 13.7846 23.187 13.7453C23.0976 13.6324 23.1765 13.5488 23.3134 13.4113C23.3871 13.3327 23.4871 13.2344 23.5871 13.1362C23.6871 13.0379 23.8082 12.9151 23.8818 12.8365C23.1449 11.967 22.1869 11.2694 21.1079 10.8174C21.0237 10.7831 20.9816 10.6848 21.0237 10.6062C21.0605 10.5276 21.1658 10.4883 21.25 10.5276C22.4238 11.0189 23.4555 11.7852 24.2398 12.7432C24.3293 12.8562 24.245 12.9446 24.1134 13.0821C24.0397 13.1608 23.9397 13.259 23.8397 13.3622C23.7081 13.4948 23.5292 13.6766 23.4818 13.7306C23.4713 13.7552 23.4502 13.7748 23.4292 13.7896C23.3923 13.7994 23.3555 13.8092 23.3239 13.8092ZM23.4608 13.5538C23.4765 13.5734 23.4871 13.598 23.4923 13.6225C23.4871 13.6029 23.4765 13.5783 23.4608 13.5538ZM12.4966 17.7196C12.5387 17.6852 12.5597 17.6312 12.5492 17.5772C12.4281 16.8747 12.5966 15.0275 13.8809 13.7994C13.9493 13.7355 13.9441 13.6324 13.8756 13.5734C13.8072 13.5095 13.6967 13.5145 13.6335 13.5783C12.4755 14.6837 12.1018 16.3785 12.1755 17.3905C11.5596 17.2382 10.9438 17.0712 10.7332 16.9926C10.7595 15.2879 11.4544 13.6667 12.6966 12.414C12.7597 12.3502 12.7545 12.247 12.686 12.1881C12.6176 12.1291 12.5071 12.134 12.4439 12.1979C11.1175 13.5292 10.3858 15.2682 10.3858 17.0859C10.3858 17.2284 10.3858 17.2824 12.3281 17.7589C12.3439 17.7638 12.3597 17.7638 12.3702 17.7638C12.4229 17.7589 12.465 17.7442 12.4966 17.7196ZM14.0283 22.9957C14.0809 22.9221 14.0599 22.8238 13.9809 22.7747C12.7071 21.9739 11.7175 20.79 11.1859 19.4538C11.1543 19.3703 11.0543 19.326 10.9648 19.3604C10.8753 19.3899 10.828 19.4832 10.8648 19.5668C11.4175 20.9718 12.4544 22.2048 13.7861 23.0449C13.8177 23.0645 13.8493 23.0743 13.8809 23.0743C13.9441 23.0645 13.9967 23.04 14.0283 22.9957ZM23.4502 22.249C24.9662 20.8833 25.7978 19.046 25.7978 17.081C25.7978 15.9216 25.4978 14.7721 24.9241 13.7503C24.8819 13.6717 24.7767 13.6422 24.6924 13.6815C24.6082 13.7208 24.5766 13.819 24.6188 13.8976C25.1662 14.8703 25.4557 15.9708 25.4557 17.081C25.4557 18.9576 24.6609 20.7114 23.2081 22.0181C23.1397 22.082 23.1397 22.1803 23.2028 22.2441C23.2344 22.2785 23.2818 22.2932 23.3239 22.2932C23.3713 22.2932 23.4134 22.2785 23.4502 22.249ZM27.14 18.8692C26.7032 18.8692 26.3452 18.5351 26.3452 18.1274C26.3452 17.7196 26.7032 17.3856 27.14 17.3856C27.5769 17.3856 27.9349 17.7196 27.9349 18.1274C27.9349 18.5351 27.5769 18.8692 27.14 18.8692ZM27.14 17.7049C26.8927 17.7049 26.6874 17.8965 26.6874 18.1274C26.6874 18.3583 26.8927 18.5499 27.14 18.5499C27.3874 18.5499 27.5927 18.3583 27.5927 18.1274C27.5927 17.8965 27.3874 17.7049 27.14 17.7049ZM23.9134 11.1761C23.4765 11.1761 23.1186 10.842 23.1186 10.4343C23.1186 10.0265 23.4765 9.69247 23.9134 9.69247C24.3503 9.69247 24.7082 10.0265 24.7082 10.4343C24.7082 10.842 24.3556 11.1761 23.9134 11.1761ZM23.9134 10.0118C23.666 10.0118 23.4608 10.2034 23.4608 10.4343C23.4608 10.6652 23.666 10.8567 23.9134 10.8567C24.1608 10.8567 24.3661 10.6652 24.3661 10.4343C24.3661 10.2034 24.1661 10.0118 23.9134 10.0118ZM13.6651 12.2716C13.2282 12.2716 12.8703 11.9375 12.8703 11.5298C12.8703 11.122 13.2282 10.788 13.6651 10.788C14.102 10.788 14.4599 11.122 14.4599 11.5298C14.4599 11.9375 14.102 12.2716 13.6651 12.2716ZM13.6651 11.1073C13.4177 11.1073 13.2124 11.2989 13.2124 11.5298C13.2124 11.7607 13.4177 11.9523 13.6651 11.9523C13.9125 11.9523 14.1178 11.7607 14.1178 11.5298C14.1178 11.294 13.9125 11.1073 13.6651 11.1073ZM10.8227 19.1541C10.3858 19.1541 10.0279 18.82 10.0279 18.4123C10.0279 18.0046 10.3858 17.6705 10.8227 17.6705C11.2596 17.6705 11.6175 18.0046 11.6175 18.4123C11.6175 18.82 11.2596 19.1541 10.8227 19.1541ZM10.8227 17.9898C10.5753 17.9898 10.37 18.1814 10.37 18.4123C10.37 18.6432 10.5753 18.8348 10.8227 18.8348C11.0701 18.8348 11.2754 18.6432 11.2754 18.4123C11.2701 18.1814 11.0701 17.9898 10.8227 17.9898ZM10.2016 22.4603C9.76471 22.4603 9.40679 22.1262 9.40679 21.7185C9.40679 21.3107 9.76471 20.9767 10.2016 20.9767C10.6385 20.9767 10.9964 21.3107 10.9964 21.7185C10.9964 22.1262 10.6385 22.4603 10.2016 22.4603ZM10.2016 21.296C9.95421 21.296 9.74892 21.4876 9.74892 21.7185C9.74892 21.9494 9.95421 22.141 10.2016 22.141C10.449 22.141 10.6543 21.9494 10.6543 21.7185C10.6543 21.4827 10.449 21.296 10.2016 21.296Z" fill="url(#paint2_linear_1479_2036)"/>
<path d="M18.0969 29.8629C25.7075 29.8629 31.8771 24.1048 31.8771 17.0018C31.8771 9.89875 25.7075 4.14062 18.0969 4.14062C10.4863 4.14062 4.31665 9.89875 4.31665 17.0018C4.31665 24.1048 10.4863 29.8629 18.0969 29.8629Z" stroke="#3B2314" stroke-width="0.5" stroke-miterlimit="10"/>
<defs>
<linearGradient id="paint0_linear_1479_2036" x1="18.0002" y1="34.1497" x2="18.0002" y2="-0.1115" gradientUnits="userSpaceOnUse">
<stop stop-color="#3B2314"/>
<stop offset="0.592" stop-color="#2A1402"/>
<stop offset="1" stop-color="#9A5C06"/>
</linearGradient>
<linearGradient id="paint1_linear_1479_2036" x1="34.1391" y1="1.22852" x2="34.1391" y2="32.7732" gradientUnits="userSpaceOnUse">
<stop stop-color="#3B2314"/>
<stop offset="0.592" stop-color="#2A1402"/>
<stop offset="1" stop-color="#9A5C06"/>
</linearGradient>
<linearGradient id="paint2_linear_1479_2036" x1="18.0973" y1="32.2158" x2="18.0973" y2="1.78492" gradientUnits="userSpaceOnUse">
<stop stop-color="#AE5212"/>
<stop offset="0.510417" stop-color="#FEC70F"/>
<stop offset="1" stop-color="#F9A61A"/>
</linearGradient>
</defs>
</svg>
