<svg width="34" height="34" viewBox="0 0 34 34" fill="none" xmlns="http://www.w3.org/2000/svg">
<path d="M17 0C7.61162 0 0 7.61162 0 17C0 26.3884 7.61162 34 17 34C26.3884 34 34 26.3884 34 17C34 7.61162 26.3884 0 17 0Z" fill="#F38A00"/>
<path d="M17 1.89844C25.3277 1.89844 32.1011 8.67186 32.1011 16.9996C32.1011 25.3274 25.3277 32.1008 17 32.1008C8.67222 32.1008 1.8988 25.3274 1.8988 16.9996C1.8988 8.67186 8.67222 1.89844 17 1.89844Z" fill="white"/>
<g clip-path="url(#clip0_1479_2020)">
<path d="M17.0949 7.35352L19.4479 9.76687L13.5229 15.7009L11.1699 13.3443L17.0949 7.35352Z" fill="#F38A00"/>
<path d="M20.667 10.9316L23.02 13.345L13.5229 22.8564L11.1699 20.4999L20.667 10.9316Z" fill="#F38A00"/>
<path d="M9.9509 14.5078L12.3039 16.9212L9.9509 19.2777L7.5979 16.9212L9.9509 14.5078Z" fill="#F38A00"/>
<path d="M24.2391 14.5078L26.5921 16.9212L17.0951 26.4326L14.7421 24.0761L24.2391 14.5078Z" fill="#F38A00"/>
</g>
<defs>
<clipPath id="clip0_1479_2020">
<rect width="18.9941" height="19.0797" fill="white" transform="translate(7.5979 7.35352)"/>
</clipPath>
</defs>
</svg>
