<svg xmlns="http://www.w3.org/2000/svg" xmlns:xlink="http://www.w3.org/1999/xlink" width="63.996" height="63.996" viewBox="0 0 63.996 63.996">
  <defs>
    <clipPath id="clip-path">
      <rect width="63.996" height="63.996" fill="none"/>
    </clipPath>
    <linearGradient id="linear-gradient" x1="0.5" y1="1" x2="0.5" y2="-0.002" gradientUnits="objectBoundingBox">
      <stop offset="0" stop-color="#412a11"/>
      <stop offset="0.07" stop-color="#462e14"/>
      <stop offset="0.181" stop-color="#553a1a"/>
      <stop offset="0.319" stop-color="#6e4d22"/>
      <stop offset="0.477" stop-color="#966a29"/>
      <stop offset="0.498" stop-color="#9c6e29"/>
      <stop offset="0.62" stop-color="#b78a37"/>
      <stop offset="0.785" stop-color="#d9b050"/>
      <stop offset="0.917" stop-color="#f2cb63"/>
      <stop offset="1" stop-color="#ffd96b"/>
    </linearGradient>
    <linearGradient id="linear-gradient-2" x1="0.5" y1="0.998" x2="0.5" y2="-0.002" gradientUnits="objectBoundingBox">
      <stop offset="0" stop-color="#513613"/>
      <stop offset="0.069" stop-color="#573a15"/>
      <stop offset="0.179" stop-color="#67461b"/>
      <stop offset="0.316" stop-color="#865b23"/>
      <stop offset="0.472" stop-color="#b57a2a"/>
      <stop offset="0.498" stop-color="#be7f2b"/>
      <stop offset="0.594" stop-color="#cb9845"/>
      <stop offset="0.729" stop-color="#debb72"/>
      <stop offset="0.847" stop-color="#eed793"/>
      <stop offset="0.941" stop-color="#faebab"/>
      <stop offset="1" stop-color="#fff3b5"/>
    </linearGradient>
    <linearGradient id="linear-gradient-3" x1="0.5" y1="1.002" x2="0.5" y2="-0.003" gradientUnits="objectBoundingBox">
      <stop offset="0" stop-color="#946727"/>
      <stop offset="0.029" stop-color="#9b6e2c"/>
      <stop offset="0.193" stop-color="#bf9a52"/>
      <stop offset="0.336" stop-color="#ddc076"/>
      <stop offset="0.45" stop-color="#f3dc8e"/>
      <stop offset="0.522" stop-color="#fee898"/>
      <stop offset="0.597" stop-color="#fee48e"/>
      <stop offset="0.731" stop-color="#fed875"/>
      <stop offset="0.906" stop-color="#fdc545"/>
      <stop offset="1" stop-color="#fcba24"/>
    </linearGradient>
    <linearGradient id="linear-gradient-4" x1="0.5" y1="1.001" x2="0.5" y2="-0.003" gradientUnits="objectBoundingBox">
      <stop offset="0" stop-color="#fff3b5"/>
      <stop offset="0.059" stop-color="#faebab"/>
      <stop offset="0.153" stop-color="#eed793"/>
      <stop offset="0.271" stop-color="#debb72"/>
      <stop offset="0.406" stop-color="#cb9845"/>
      <stop offset="0.502" stop-color="#be7f2b"/>
      <stop offset="0.528" stop-color="#b57a2a"/>
      <stop offset="0.684" stop-color="#865b23"/>
      <stop offset="0.821" stop-color="#67461b"/>
      <stop offset="0.931" stop-color="#573a15"/>
      <stop offset="1" stop-color="#513613"/>
    </linearGradient>
    <linearGradient id="linear-gradient-5" x1="0.5" y1="1" x2="0.5" y2="-0.004" gradientUnits="objectBoundingBox">
      <stop offset="0" stop-color="#9f752b"/>
      <stop offset="0.048" stop-color="#956c2b"/>
      <stop offset="0.198" stop-color="#7b552a"/>
      <stop offset="0.34" stop-color="#694628"/>
      <stop offset="0.47" stop-color="#603d26"/>
      <stop offset="0.576" stop-color="#5c3a25"/>
      <stop offset="0.683" stop-color="#5f3c26"/>
      <stop offset="0.756" stop-color="#664127"/>
      <stop offset="0.819" stop-color="#744b29"/>
      <stop offset="0.876" stop-color="#895a2c"/>
      <stop offset="0.929" stop-color="#a76e2c"/>
      <stop offset="0.979" stop-color="#ce8928"/>
      <stop offset="1" stop-color="#e69a24"/>
    </linearGradient>
    <clipPath id="clip-path-2">
      <path id="Path_2" data-name="Path 2" d="M175.745,256.659l6.071-6.437a23.387,23.387,0,0,0-14-9.921v1.439H156.7V240.3a23.387,23.387,0,0,0-14,9.921l6.071,6.437v12.875h0l-6,6.349a23.454,23.454,0,0,0,11.587,9.1l.846-.77h14.112l.846.77a23.4,23.4,0,0,0,11.587-9.1l-6.008-6.336Z" transform="translate(-142.7 -240.3)" opacity="0.05"/>
    </clipPath>
    <linearGradient id="linear-gradient-6" x1="0.52" y1="0.994" x2="0.52" y2="-0.001" xlink:href="#linear-gradient-3"/>
    <linearGradient id="linear-gradient-7" x1="0.464" y1="0.994" x2="0.464" y2="-0.001" xlink:href="#linear-gradient-3"/>
    <linearGradient id="linear-gradient-8" x1="0.484" y1="0.994" x2="0.484" y2="-0.001" xlink:href="#linear-gradient-3"/>
    <linearGradient id="linear-gradient-9" x1="0.504" y1="0.994" x2="0.504" y2="-0.001" xlink:href="#linear-gradient-3"/>
    <linearGradient id="linear-gradient-10" x1="0.524" y1="0.994" x2="0.524" y2="-0.001" xlink:href="#linear-gradient-3"/>
    <linearGradient id="linear-gradient-11" x1="0.468" y1="0.994" x2="0.468" y2="-0.001" xlink:href="#linear-gradient-3"/>
    <linearGradient id="linear-gradient-12" x1="0.488" y1="0.994" x2="0.488" y2="-0.001" xlink:href="#linear-gradient-3"/>
    <linearGradient id="linear-gradient-13" x1="0.508" y1="0.994" x2="0.508" y2="-0.001" xlink:href="#linear-gradient-3"/>
    <linearGradient id="linear-gradient-14" x1="0.528" y1="0.994" x2="0.528" y2="-0.001" xlink:href="#linear-gradient-3"/>
    <linearGradient id="linear-gradient-15" x1="0.472" y1="0.994" x2="0.472" y2="-0.001" xlink:href="#linear-gradient-3"/>
    <linearGradient id="linear-gradient-16" x1="0.491" y1="0.994" x2="0.491" y2="-0.001" xlink:href="#linear-gradient-3"/>
    <linearGradient id="linear-gradient-17" x1="0.511" y1="0.994" x2="0.511" y2="-0.001" xlink:href="#linear-gradient-3"/>
    <linearGradient id="linear-gradient-18" x1="0.531" y1="0.994" x2="0.531" y2="-0.001" xlink:href="#linear-gradient-3"/>
    <linearGradient id="linear-gradient-19" x1="0.475" y1="0.994" x2="0.475" y2="-0.001" xlink:href="#linear-gradient-3"/>
    <linearGradient id="linear-gradient-20" x1="0.495" y1="0.994" x2="0.495" y2="-0.001" xlink:href="#linear-gradient-3"/>
    <linearGradient id="linear-gradient-21" x1="0.515" y1="0.994" x2="0.515" y2="-0.001" xlink:href="#linear-gradient-3"/>
    <linearGradient id="linear-gradient-22" x1="0.459" y1="0.994" x2="0.459" y2="-0.001" xlink:href="#linear-gradient-3"/>
    <linearGradient id="linear-gradient-23" x1="0.479" y1="0.994" x2="0.479" y2="-0.001" xlink:href="#linear-gradient-3"/>
    <linearGradient id="linear-gradient-24" x1="0.499" y1="0.994" x2="0.499" y2="-0.001" xlink:href="#linear-gradient-3"/>
    <linearGradient id="linear-gradient-25" x1="0.519" y1="0.994" x2="0.519" y2="-0.001" xlink:href="#linear-gradient-3"/>
    <linearGradient id="linear-gradient-26" x1="0.463" y1="0.994" x2="0.463" y2="-0.001" xlink:href="#linear-gradient-3"/>
    <linearGradient id="linear-gradient-27" x1="0.482" y1="0.994" x2="0.482" y2="-0.001" xlink:href="#linear-gradient-3"/>
    <linearGradient id="linear-gradient-28" x1="0.502" y1="0.994" x2="0.502" y2="-0.001" xlink:href="#linear-gradient-3"/>
    <linearGradient id="linear-gradient-29" x1="0.522" y1="0.994" x2="0.522" y2="-0.001" xlink:href="#linear-gradient-3"/>
    <linearGradient id="linear-gradient-30" x1="0.466" y1="0.994" x2="0.466" y2="-0.001" xlink:href="#linear-gradient-3"/>
    <linearGradient id="linear-gradient-31" x1="0.486" y1="0.994" x2="0.486" y2="-0.001" xlink:href="#linear-gradient-3"/>
    <linearGradient id="linear-gradient-32" x1="0.506" y1="0.994" x2="0.506" y2="-0.001" xlink:href="#linear-gradient-3"/>
    <linearGradient id="linear-gradient-33" x1="0.526" y1="0.994" x2="0.526" y2="-0.001" xlink:href="#linear-gradient-3"/>
    <linearGradient id="linear-gradient-34" x1="0.47" y1="0.994" x2="0.47" y2="-0.001" xlink:href="#linear-gradient-3"/>
    <linearGradient id="linear-gradient-35" x1="0.49" y1="0.994" x2="0.49" y2="-0.001" xlink:href="#linear-gradient-3"/>
    <linearGradient id="linear-gradient-36" x1="0.51" y1="0.994" x2="0.51" y2="-0.001" xlink:href="#linear-gradient-3"/>
    <linearGradient id="linear-gradient-37" x1="0.53" y1="0.994" x2="0.53" y2="-0.001" xlink:href="#linear-gradient-3"/>
    <linearGradient id="linear-gradient-38" x1="0.474" y1="0.994" x2="0.474" y2="-0.001" xlink:href="#linear-gradient-3"/>
    <linearGradient id="linear-gradient-39" x1="0.493" y1="0.994" x2="0.493" y2="-0.001" xlink:href="#linear-gradient-3"/>
    <linearGradient id="linear-gradient-40" x1="0.513" y1="0.994" x2="0.513" y2="-0.001" xlink:href="#linear-gradient-3"/>
    <linearGradient id="linear-gradient-41" x1="0.533" y1="0.994" x2="0.533" y2="-0.001" xlink:href="#linear-gradient-3"/>
    <linearGradient id="linear-gradient-42" x1="0.477" y1="0.994" x2="0.477" y2="-0.001" xlink:href="#linear-gradient-3"/>
    <linearGradient id="linear-gradient-43" x1="0.497" y1="0.994" x2="0.497" y2="-0.001" xlink:href="#linear-gradient-3"/>
    <linearGradient id="linear-gradient-44" x1="0.517" y1="0.994" x2="0.517" y2="-0.001" xlink:href="#linear-gradient-3"/>
    <linearGradient id="linear-gradient-45" x1="0.46" y1="0.994" x2="0.46" y2="-0.001" xlink:href="#linear-gradient-3"/>
    <linearGradient id="linear-gradient-46" x1="0.481" y1="0.994" x2="0.481" y2="-0.001" xlink:href="#linear-gradient-3"/>
    <linearGradient id="linear-gradient-47" x1="0.501" y1="0.994" x2="0.501" y2="-0.001" xlink:href="#linear-gradient-3"/>
    <linearGradient id="linear-gradient-48" x1="0.521" y1="0.994" x2="0.521" y2="-0.001" xlink:href="#linear-gradient-3"/>
    <linearGradient id="linear-gradient-49" x1="0.464" y1="0.994" x2="0.464" y2="-0.001" xlink:href="#linear-gradient-3"/>
    <linearGradient id="linear-gradient-50" x1="0.484" y1="0.994" x2="0.484" y2="-0.001" xlink:href="#linear-gradient-3"/>
    <linearGradient id="linear-gradient-51" x1="0.504" y1="0.994" x2="0.504" y2="-0.001" xlink:href="#linear-gradient-3"/>
    <linearGradient id="linear-gradient-52" x1="0.524" y1="0.994" x2="0.524" y2="-0.001" xlink:href="#linear-gradient-3"/>
    <linearGradient id="linear-gradient-53" x1="0.468" y1="0.994" x2="0.468" y2="-0.001" xlink:href="#linear-gradient-3"/>
    <linearGradient id="linear-gradient-54" x1="0.488" y1="0.994" x2="0.488" y2="-0.001" xlink:href="#linear-gradient-3"/>
    <linearGradient id="linear-gradient-55" x1="0.508" y1="0.994" x2="0.508" y2="-0.001" xlink:href="#linear-gradient-3"/>
    <linearGradient id="linear-gradient-56" x1="0.528" y1="0.994" x2="0.528" y2="-0.001" xlink:href="#linear-gradient-3"/>
    <linearGradient id="linear-gradient-57" x1="0.472" y1="0.994" x2="0.472" y2="-0.001" xlink:href="#linear-gradient-3"/>
    <linearGradient id="linear-gradient-58" x1="0.492" y1="0.994" x2="0.492" y2="-0.001" xlink:href="#linear-gradient-3"/>
    <linearGradient id="linear-gradient-59" x1="0.512" y1="0.994" x2="0.512" y2="-0.001" xlink:href="#linear-gradient-3"/>
    <linearGradient id="linear-gradient-60" x1="0.531" y1="0.994" x2="0.531" y2="-0.001" xlink:href="#linear-gradient-3"/>
    <linearGradient id="linear-gradient-61" x1="0.475" y1="0.994" x2="0.475" y2="-0.001" xlink:href="#linear-gradient-3"/>
    <linearGradient id="linear-gradient-62" x1="0.495" y1="0.994" x2="0.495" y2="-0.001" xlink:href="#linear-gradient-3"/>
    <linearGradient id="linear-gradient-63" x1="0.515" y1="0.994" x2="0.515" y2="-0.001" xlink:href="#linear-gradient-3"/>
    <linearGradient id="linear-gradient-64" x1="0.458" y1="0.994" x2="0.458" y2="-0.001" xlink:href="#linear-gradient-3"/>
    <linearGradient id="linear-gradient-65" x1="0.479" y1="0.994" x2="0.479" y2="-0.001" xlink:href="#linear-gradient-3"/>
    <linearGradient id="linear-gradient-66" x1="0.499" y1="0.994" x2="0.499" y2="-0.001" xlink:href="#linear-gradient-3"/>
    <linearGradient id="linear-gradient-67" x1="0.519" y1="0.994" x2="0.519" y2="-0.001" xlink:href="#linear-gradient-3"/>
    <linearGradient id="linear-gradient-68" x1="0.462" y1="0.994" x2="0.462" y2="-0.001" xlink:href="#linear-gradient-3"/>
    <linearGradient id="linear-gradient-69" x1="0.483" y1="0.994" x2="0.483" y2="-0.001" xlink:href="#linear-gradient-3"/>
    <linearGradient id="linear-gradient-70" x1="0.503" y1="0.994" x2="0.503" y2="-0.001" xlink:href="#linear-gradient-3"/>
    <linearGradient id="linear-gradient-71" x1="0.523" y1="0.994" x2="0.523" y2="-0.001" xlink:href="#linear-gradient-3"/>
    <linearGradient id="linear-gradient-72" x1="0.465" y1="0.994" x2="0.465" y2="-0.001" xlink:href="#linear-gradient-3"/>
    <linearGradient id="linear-gradient-73" x1="0.486" y1="0.994" x2="0.486" y2="-0.001" xlink:href="#linear-gradient-3"/>
    <linearGradient id="linear-gradient-74" x1="0.506" y1="0.994" x2="0.506" y2="-0.001" xlink:href="#linear-gradient-3"/>
    <linearGradient id="linear-gradient-75" x1="0.526" y1="0.994" x2="0.526" y2="-0.001" xlink:href="#linear-gradient-3"/>
    <linearGradient id="linear-gradient-76" x1="0.47" y1="0.994" x2="0.47" y2="-0.001" xlink:href="#linear-gradient-3"/>
    <linearGradient id="linear-gradient-77" x1="0.49" y1="0.994" x2="0.49" y2="-0.001" xlink:href="#linear-gradient-3"/>
    <linearGradient id="linear-gradient-78" x1="0.51" y1="0.994" x2="0.51" y2="-0.001" xlink:href="#linear-gradient-3"/>
    <linearGradient id="linear-gradient-79" x1="0.53" y1="0.994" x2="0.53" y2="-0.001" xlink:href="#linear-gradient-3"/>
    <linearGradient id="linear-gradient-80" x1="0.474" y1="0.994" x2="0.474" y2="-0.001" xlink:href="#linear-gradient-3"/>
    <linearGradient id="linear-gradient-82" x1="0.514" y1="0.994" x2="0.514" y2="-0.001" xlink:href="#linear-gradient-3"/>
    <linearGradient id="linear-gradient-83" x1="0.533" y1="0.994" x2="0.533" y2="-0.001" xlink:href="#linear-gradient-3"/>
    <linearGradient id="linear-gradient-84" x1="0.477" y1="0.994" x2="0.477" y2="-0.001" xlink:href="#linear-gradient-3"/>
    <linearGradient id="linear-gradient-85" x1="0.497" y1="0.994" x2="0.497" y2="-0.001" xlink:href="#linear-gradient-3"/>
    <linearGradient id="linear-gradient-86" x1="0.517" y1="0.994" x2="0.517" y2="-0.001" xlink:href="#linear-gradient-3"/>
    <linearGradient id="linear-gradient-87" x1="0.46" y1="0.994" x2="0.46" y2="-0.001" xlink:href="#linear-gradient-3"/>
    <linearGradient id="linear-gradient-88" x1="0.498" y1="1.444" x2="0.498" y2="-0.495" gradientUnits="objectBoundingBox">
      <stop offset="0" stop-color="#5a3211"/>
      <stop offset="0.009" stop-color="#5b3312"/>
      <stop offset="0.367" stop-color="#937046"/>
      <stop offset="0.663" stop-color="#c6ad7a"/>
      <stop offset="0.882" stop-color="#ebdca1"/>
      <stop offset="1" stop-color="#fff3b5"/>
    </linearGradient>
    <linearGradient id="linear-gradient-89" x1="0.499" y1="4.107" x2="0.499" y2="-0.133" xlink:href="#linear-gradient-88"/>
    <linearGradient id="linear-gradient-90" x1="0.5" y1="1.149" x2="0.5" y2="-3.62" xlink:href="#linear-gradient-88"/>
    <linearGradient id="linear-gradient-91" x1="0.501" y1="1.444" x2="0.501" y2="-0.497" xlink:href="#linear-gradient-88"/>
    <linearGradient id="linear-gradient-92" x1="0.5" y1="4.107" x2="0.5" y2="-0.133" xlink:href="#linear-gradient-88"/>
    <linearGradient id="linear-gradient-93" x1="0.5" y1="1.149" x2="0.5" y2="-3.625" xlink:href="#linear-gradient-88"/>
    <linearGradient id="linear-gradient-94" x1="0.501" y1="8.002" x2="0.501" y2="-4.271" xlink:href="#linear-gradient-88"/>
    <linearGradient id="linear-gradient-95" x1="0.494" y1="5.09" x2="0.494" y2="-2.322" xlink:href="#linear-gradient-88"/>
    <linearGradient id="linear-gradient-96" x1="0.497" y1="6.192" x2="0.497" y2="-3.06" xlink:href="#linear-gradient-88"/>
    <linearGradient id="linear-gradient-97" x1="0.506" y1="11.612" x2="0.506" y2="-6.689" xlink:href="#linear-gradient-88"/>
    <linearGradient id="linear-gradient-98" x1="0.506" y1="4.348" x2="0.506" y2="-1.824" xlink:href="#linear-gradient-88"/>
    <linearGradient id="linear-gradient-99" x1="0.501" y1="3.799" x2="0.501" y2="-1.456" xlink:href="#linear-gradient-88"/>
    <linearGradient id="linear-gradient-100" x1="0.499" y1="3.088" x2="0.499" y2="-1.144" xlink:href="#linear-gradient-88"/>
    <linearGradient id="linear-gradient-101" x1="0.501" y1="4.975" x2="0.501" y2="-7.334" xlink:href="#linear-gradient-88"/>
    <linearGradient id="linear-gradient-102" x1="0.494" y1="3.134" x2="0.494" y2="-4.277" xlink:href="#linear-gradient-88"/>
    <linearGradient id="linear-gradient-103" x1="0.497" y1="3.826" x2="0.497" y2="-5.426" xlink:href="#linear-gradient-88"/>
    <linearGradient id="linear-gradient-104" x1="0.506" y1="7.231" x2="0.506" y2="-11.071" xlink:href="#linear-gradient-88"/>
    <linearGradient id="linear-gradient-105" x1="0.506" y1="2.672" x2="0.506" y2="-3.51" xlink:href="#linear-gradient-88"/>
    <linearGradient id="linear-gradient-106" x1="0.501" y1="2.326" x2="0.501" y2="-2.93" xlink:href="#linear-gradient-88"/>
    <linearGradient id="linear-gradient-107" x1="0.499" y1="2.038" x2="0.499" y2="-2.194" xlink:href="#linear-gradient-88"/>
    <linearGradient id="linear-gradient-108" x1="0.496" y1="8.002" x2="0.496" y2="-4.271" xlink:href="#linear-gradient-88"/>
    <linearGradient id="linear-gradient-109" x1="0.502" y1="5.09" x2="0.502" y2="-2.322" xlink:href="#linear-gradient-88"/>
    <linearGradient id="linear-gradient-110" x1="0.499" y1="6.18" x2="0.499" y2="-3.051" xlink:href="#linear-gradient-88"/>
    <linearGradient id="linear-gradient-111" x1="0.49" y1="11.612" x2="0.49" y2="-6.689" xlink:href="#linear-gradient-88"/>
    <linearGradient id="linear-gradient-112" x1="0.506" y1="4.353" x2="0.506" y2="-1.828" xlink:href="#linear-gradient-88"/>
    <linearGradient id="linear-gradient-113" x1="0.496" y1="3.803" x2="0.496" y2="-1.459" xlink:href="#linear-gradient-88"/>
    <linearGradient id="linear-gradient-114" x1="0.5" y1="3.088" x2="0.5" y2="-1.144" xlink:href="#linear-gradient-88"/>
    <linearGradient id="linear-gradient-115" x1="0.496" y1="4.963" x2="0.496" y2="-7.309" xlink:href="#linear-gradient-88"/>
    <linearGradient id="linear-gradient-116" x1="0.502" y1="3.13" x2="0.502" y2="-4.268" xlink:href="#linear-gradient-88"/>
    <linearGradient id="linear-gradient-117" x1="0.499" y1="3.82" x2="0.499" y2="-5.412" xlink:href="#linear-gradient-88"/>
    <linearGradient id="linear-gradient-118" x1="0.49" y1="7.231" x2="0.49" y2="-11.071" xlink:href="#linear-gradient-88"/>
    <linearGradient id="linear-gradient-119" x1="0.506" y1="2.672" x2="0.506" y2="-3.51" xlink:href="#linear-gradient-88"/>
    <linearGradient id="linear-gradient-120" x1="0.496" y1="2.327" x2="0.496" y2="-2.935" xlink:href="#linear-gradient-88"/>
    <linearGradient id="linear-gradient-121" x1="0.5" y1="2.038" x2="0.5" y2="-2.194" xlink:href="#linear-gradient-88"/>
    <linearGradient id="linear-gradient-122" x1="0.5" y1="0.997" x2="0.5" y2="0.003" xlink:href="#linear-gradient-88"/>
    <linearGradient id="linear-gradient-123" x1="5.511" y1="-12.117" x2="4.631" y2="-12.604" gradientUnits="objectBoundingBox">
      <stop offset="0" stop-color="#d95453"/>
      <stop offset="1" stop-color="#861d4c"/>
    </linearGradient>
    <linearGradient id="linear-gradient-124" x1="1274.492" y1="-4441.08" x2="1275.445" y2="-4441.08" gradientUnits="objectBoundingBox">
      <stop offset="0" stop-color="#d9825a"/>
      <stop offset="0.109" stop-color="#df956a"/>
      <stop offset="0.273" stop-color="#e6ae7f"/>
      <stop offset="0.441" stop-color="#edc391"/>
      <stop offset="0.615" stop-color="#f1d29f"/>
      <stop offset="0.797" stop-color="#f4dba7"/>
      <stop offset="1" stop-color="#f5deaa"/>
    </linearGradient>
    <linearGradient id="linear-gradient-125" x1="2.19" y1="-5.012" x2="3.135" y2="-5.012" xlink:href="#linear-gradient-124"/>
    <linearGradient id="linear-gradient-126" x1="8.147" y1="-30.064" x2="6.011" y2="-31.313" xlink:href="#linear-gradient-123"/>
    <linearGradient id="linear-gradient-127" x1="4.103" y1="-4.854" x2="3.324" y2="-4.793" xlink:href="#linear-gradient-123"/>
    <linearGradient id="linear-gradient-128" x1="18.979" y1="-122.311" x2="18.864" y2="-118.775" gradientUnits="objectBoundingBox">
      <stop offset="0" stop-color="#444c4c"/>
      <stop offset="0.24" stop-color="#434b4b"/>
      <stop offset="0.41" stop-color="#3f4646"/>
      <stop offset="0.559" stop-color="#393f3f"/>
      <stop offset="0.696" stop-color="#303535"/>
      <stop offset="0.825" stop-color="#242727"/>
      <stop offset="0.945" stop-color="#111313"/>
      <stop offset="1" stop-color="#010101"/>
    </linearGradient>
    <linearGradient id="linear-gradient-129" x1="-0.046" y1="0.206" x2="0.992" y2="0.821" gradientUnits="objectBoundingBox">
      <stop offset="0" stop-color="#b17a2d"/>
      <stop offset="0.05" stop-color="#b57f2e"/>
      <stop offset="0.122" stop-color="#bf8e33"/>
      <stop offset="0.208" stop-color="#d1a83e"/>
      <stop offset="0.303" stop-color="#eed152"/>
      <stop offset="0.333" stop-color="#fce25b"/>
      <stop offset="0.516" stop-color="#fce984"/>
      <stop offset="0.661" stop-color="#fce25b"/>
      <stop offset="1" stop-color="#b17a2d"/>
    </linearGradient>
    <linearGradient id="linear-gradient-130" x1="-0.178" y1="0.115" x2="0.733" y2="0.725" xlink:href="#linear-gradient-129"/>
    <linearGradient id="linear-gradient-131" x1="0.093" y1="0.325" x2="0.914" y2="1.08" xlink:href="#linear-gradient-129"/>
    <linearGradient id="linear-gradient-132" x1="0.189" y1="0.134" x2="1.054" y2="0.858" xlink:href="#linear-gradient-129"/>
    <linearGradient id="linear-gradient-133" x1="-0.118" y1="0.082" x2="1.118" y2="0.919" xlink:href="#linear-gradient-129"/>
    <linearGradient id="linear-gradient-134" x1="-0.042" y1="0.054" x2="1.053" y2="0.952" xlink:href="#linear-gradient-129"/>
  </defs>
  <g id="spacex-musk" clip-path="url(#clip-path)">
    <g id="spacex-musk-2" data-name="spacex-musk" transform="translate(-44 -167.4)">
      <g id="Group_135" data-name="Group 135" transform="translate(44 167.4)">
        <path id="Path_1" data-name="Path 1" d="M108,199.4c0,.467-.366.921-.391,1.376s.3.947.265,1.414-.442.884-.5,1.338.227.972.139,1.426-.518.846-.618,1.288.139.985.013,1.426-.593.8-.732,1.237.05,1-.114,1.426-.656.732-.833,1.161-.038,1-.24,1.414-.719.682-.934,1.086-.126.985-.353,1.388-.783.606-1.022,1-.215.972-.48,1.351-.82.543-1.111.909-.29.947-.593,1.3-.871.467-1.187.808-.379.921-.707,1.25-.909.391-1.25.707-.454.884-.808,1.187-.934.316-1.3.593-.53.846-.909,1.111-.959.227-1.351.48-.606.8-1,1.022-.972.139-1.388.353-.669.732-1.086.934-.985.05-1.414.24-.732.682-1.161.833-.985-.025-1.426.114-.783.606-1.237.732-.985-.114-1.426-.013-.833.543-1.287.618-.959-.2-1.426-.139-.884.467-1.338.5-.947-.29-1.414-.265-.909.391-1.376.391-.921-.366-1.376-.391-.947.3-1.414.265-.884-.442-1.338-.5-.972.227-1.426.139-.846-.518-1.287-.618-.985.139-1.426.013-.8-.593-1.237-.732-1,.05-1.426-.114-.732-.656-1.161-.833-1-.038-1.414-.24-.682-.719-1.086-.934-.985-.126-1.388-.353-.606-.783-1-1.022-.972-.215-1.351-.48-.543-.82-.909-1.111-.947-.29-1.3-.593-.467-.871-.808-1.187-.921-.379-1.25-.707-.391-.909-.707-1.25-.884-.454-1.187-.808-.316-.934-.593-1.3-.846-.53-1.111-.909-.227-.959-.48-1.351-.8-.606-1.022-1-.139-.972-.353-1.388-.732-.669-.934-1.086-.05-.985-.24-1.414-.682-.732-.833-1.161.025-.985-.114-1.426-.606-.783-.732-1.237.114-.985.013-1.426-.543-.833-.618-1.288.2-.959.139-1.426-.467-.884-.5-1.338.29-.947.265-1.414S44,199.865,44,199.4s.366-.921.391-1.376-.3-.947-.265-1.414.442-.884.5-1.338-.227-.972-.139-1.426.518-.846.618-1.287-.139-.985-.013-1.426.593-.8.732-1.237-.05-1,.114-1.426.656-.732.833-1.161.038-1,.24-1.414.719-.682.934-1.086.126-.985.353-1.388.783-.606,1.022-1,.215-.972.48-1.351.82-.543,1.111-.909.29-.947.593-1.3.871-.467,1.187-.808.379-.921.707-1.25.909-.391,1.25-.707.454-.884.808-1.187.934-.316,1.3-.593.53-.846.909-1.111.959-.227,1.351-.48.606-.8,1-1.022.972-.139,1.388-.353.669-.732,1.086-.934.985-.05,1.414-.24.732-.682,1.161-.833.985.025,1.426-.114.783-.606,1.237-.732.985.114,1.426.013.833-.543,1.287-.618.959.2,1.426.139.884-.467,1.338-.5.947.29,1.414.265.909-.391,1.376-.391.921.366,1.376.391.947-.3,1.414-.265.884.442,1.338.5.972-.227,1.426-.139.846.518,1.287.618.985-.139,1.426-.013.8.593,1.237.732,1-.05,1.426.114.732.656,1.161.833,1,.038,1.414.24.682.719,1.086.934.985.126,1.388.353.606.783,1,1.022.972.215,1.351.48.543.82.909,1.111.947.29,1.3.593.467.871.808,1.187.921.379,1.25.707.391.909.707,1.25.884.454,1.187.808.316.934.593,1.3.846.53,1.111.909.227.959.48,1.351.8.606,1.022,1,.139.972.353,1.388.732.669.934,1.086.05.985.24,1.414.682.732.833,1.161-.025.985.114,1.426.606.783.732,1.237-.114.985-.013,1.426.543.833.618,1.287-.2.959-.139,1.426.467.884.5,1.338-.29.947-.265,1.414S108,198.943,108,199.4Z" transform="translate(-44 -167.4)" fill="url(#linear-gradient)"/>
        <circle id="Ellipse_1" data-name="Ellipse 1" cx="31.569" cy="31.569" r="31.569" transform="translate(0.442 0.429)" fill="url(#linear-gradient-2)"/>
        <circle id="Ellipse_2" data-name="Ellipse 2" cx="31.013" cy="31.013" r="31.013" transform="translate(0.997 0.985)" fill="url(#linear-gradient-3)"/>
        <circle id="Ellipse_3" data-name="Ellipse 3" cx="29.019" cy="29.019" r="29.019" transform="translate(2.992 2.979)" fill="url(#linear-gradient-4)"/>
        <circle id="Ellipse_4" data-name="Ellipse 4" cx="28.577" cy="28.577" r="28.577" transform="translate(3.433 3.421)" fill="url(#linear-gradient-5)"/>
        <g id="Group_84" data-name="Group 84" transform="translate(12.458 9.202)" opacity="0.05">
          <g id="Group_83" data-name="Group 83" clip-path="url(#clip-path-2)">
            <g id="Group_1" data-name="Group 1" transform="translate(-0.088 0.013)">
              <rect id="Rectangle_1" data-name="Rectangle 1" width="0.164" height="45.567" fill="url(#linear-gradient-6)"/>
            </g>
            <g id="Group_2" data-name="Group 2" transform="translate(0.404 0.013)">
              <rect id="Rectangle_2" data-name="Rectangle 2" width="0.164" height="45.567" fill="url(#linear-gradient-7)"/>
            </g>
            <g id="Group_3" data-name="Group 3" transform="translate(0.884 0.013)">
              <rect id="Rectangle_3" data-name="Rectangle 3" width="0.164" height="45.567" fill="url(#linear-gradient-8)"/>
            </g>
            <g id="Group_4" data-name="Group 4" transform="translate(1.363 0.013)">
              <rect id="Rectangle_4" data-name="Rectangle 4" width="0.164" height="45.567" fill="url(#linear-gradient-9)"/>
            </g>
            <g id="Group_5" data-name="Group 5" transform="translate(1.843 0.013)">
              <rect id="Rectangle_5" data-name="Rectangle 5" width="0.164" height="45.567" fill="url(#linear-gradient-10)"/>
            </g>
            <g id="Group_6" data-name="Group 6" transform="translate(2.335 0.013)">
              <rect id="Rectangle_6" data-name="Rectangle 6" width="0.164" height="45.567" fill="url(#linear-gradient-11)"/>
            </g>
            <g id="Group_7" data-name="Group 7" transform="translate(2.815 0.013)">
              <rect id="Rectangle_7" data-name="Rectangle 7" width="0.164" height="45.567" fill="url(#linear-gradient-12)"/>
            </g>
            <g id="Group_8" data-name="Group 8" transform="translate(3.294 0.013)">
              <rect id="Rectangle_8" data-name="Rectangle 8" width="0.164" height="45.567" fill="url(#linear-gradient-13)"/>
            </g>
            <g id="Group_9" data-name="Group 9" transform="translate(3.774 0.013)">
              <rect id="Rectangle_9" data-name="Rectangle 9" width="0.164" height="45.567" fill="url(#linear-gradient-14)"/>
            </g>
            <g id="Group_10" data-name="Group 10" transform="translate(4.266 0.013)">
              <rect id="Rectangle_10" data-name="Rectangle 10" width="0.164" height="45.567" fill="url(#linear-gradient-15)"/>
            </g>
            <g id="Group_11" data-name="Group 11" transform="translate(4.746 0.013)">
              <rect id="Rectangle_11" data-name="Rectangle 11" width="0.164" height="45.567" fill="url(#linear-gradient-16)"/>
            </g>
            <g id="Group_12" data-name="Group 12" transform="translate(5.226 0.013)">
              <rect id="Rectangle_12" data-name="Rectangle 12" width="0.164" height="45.567" fill="url(#linear-gradient-17)"/>
            </g>
            <g id="Group_13" data-name="Group 13" transform="translate(5.705 0.013)">
              <rect id="Rectangle_13" data-name="Rectangle 13" width="0.164" height="45.567" fill="url(#linear-gradient-18)"/>
            </g>
            <g id="Group_14" data-name="Group 14" transform="translate(6.198 0.013)">
              <rect id="Rectangle_14" data-name="Rectangle 14" width="0.164" height="45.567" fill="url(#linear-gradient-19)"/>
            </g>
            <g id="Group_15" data-name="Group 15" transform="translate(6.677 0.013)">
              <rect id="Rectangle_15" data-name="Rectangle 15" width="0.164" height="45.567" fill="url(#linear-gradient-20)"/>
            </g>
            <g id="Group_16" data-name="Group 16" transform="translate(7.157 0.013)">
              <rect id="Rectangle_16" data-name="Rectangle 16" width="0.164" height="45.567" fill="url(#linear-gradient-21)"/>
            </g>
            <g id="Group_17" data-name="Group 17" transform="translate(7.649 0.013)">
              <rect id="Rectangle_17" data-name="Rectangle 17" width="0.164" height="45.567" fill="url(#linear-gradient-22)"/>
            </g>
            <g id="Group_18" data-name="Group 18" transform="translate(8.129 0.013)">
              <rect id="Rectangle_18" data-name="Rectangle 18" width="0.164" height="45.567" fill="url(#linear-gradient-23)"/>
            </g>
            <g id="Group_19" data-name="Group 19" transform="translate(8.608 0.013)">
              <rect id="Rectangle_19" data-name="Rectangle 19" width="0.164" height="45.567" fill="url(#linear-gradient-24)"/>
            </g>
            <g id="Group_20" data-name="Group 20" transform="translate(9.088 0.013)">
              <rect id="Rectangle_20" data-name="Rectangle 20" width="0.164" height="45.567" fill="url(#linear-gradient-25)"/>
            </g>
            <g id="Group_21" data-name="Group 21" transform="translate(9.58 0.013)">
              <rect id="Rectangle_21" data-name="Rectangle 21" width="0.164" height="45.567" fill="url(#linear-gradient-26)"/>
            </g>
            <g id="Group_22" data-name="Group 22" transform="translate(10.06 0.013)">
              <rect id="Rectangle_22" data-name="Rectangle 22" width="0.164" height="45.567" fill="url(#linear-gradient-27)"/>
            </g>
            <g id="Group_23" data-name="Group 23" transform="translate(10.54 0.013)">
              <rect id="Rectangle_23" data-name="Rectangle 23" width="0.164" height="45.567" fill="url(#linear-gradient-28)"/>
            </g>
            <g id="Group_24" data-name="Group 24" transform="translate(11.019 0.013)">
              <rect id="Rectangle_24" data-name="Rectangle 24" width="0.164" height="45.567" fill="url(#linear-gradient-29)"/>
            </g>
            <g id="Group_25" data-name="Group 25" transform="translate(11.512 0.013)">
              <rect id="Rectangle_25" data-name="Rectangle 25" width="0.164" height="45.567" fill="url(#linear-gradient-30)"/>
            </g>
            <g id="Group_26" data-name="Group 26" transform="translate(11.991 0.013)">
              <rect id="Rectangle_26" data-name="Rectangle 26" width="0.164" height="45.567" fill="url(#linear-gradient-31)"/>
            </g>
            <g id="Group_27" data-name="Group 27" transform="translate(12.471 0.013)">
              <rect id="Rectangle_27" data-name="Rectangle 27" width="0.164" height="45.567" fill="url(#linear-gradient-32)"/>
            </g>
            <g id="Group_28" data-name="Group 28" transform="translate(12.951 0.013)">
              <rect id="Rectangle_28" data-name="Rectangle 28" width="0.164" height="45.567" fill="url(#linear-gradient-33)"/>
            </g>
            <g id="Group_29" data-name="Group 29" transform="translate(13.443 0.013)">
              <rect id="Rectangle_29" data-name="Rectangle 29" width="0.164" height="45.567" fill="url(#linear-gradient-34)"/>
            </g>
            <g id="Group_30" data-name="Group 30" transform="translate(13.923 0.013)">
              <rect id="Rectangle_30" data-name="Rectangle 30" width="0.164" height="45.567" fill="url(#linear-gradient-35)"/>
            </g>
            <g id="Group_31" data-name="Group 31" transform="translate(14.402 0.013)">
              <rect id="Rectangle_31" data-name="Rectangle 31" width="0.164" height="45.567" fill="url(#linear-gradient-36)"/>
            </g>
            <g id="Group_32" data-name="Group 32" transform="translate(14.882 0.013)">
              <rect id="Rectangle_32" data-name="Rectangle 32" width="0.164" height="45.567" fill="url(#linear-gradient-37)"/>
            </g>
            <g id="Group_33" data-name="Group 33" transform="translate(15.374 0.013)">
              <rect id="Rectangle_33" data-name="Rectangle 33" width="0.164" height="45.567" fill="url(#linear-gradient-38)"/>
            </g>
            <g id="Group_34" data-name="Group 34" transform="translate(15.854 0.013)">
              <rect id="Rectangle_34" data-name="Rectangle 34" width="0.164" height="45.567" fill="url(#linear-gradient-39)"/>
            </g>
            <g id="Group_35" data-name="Group 35" transform="translate(16.333 0.013)">
              <rect id="Rectangle_35" data-name="Rectangle 35" width="0.164" height="45.567" fill="url(#linear-gradient-40)"/>
            </g>
            <g id="Group_36" data-name="Group 36" transform="translate(16.813 0.013)">
              <rect id="Rectangle_36" data-name="Rectangle 36" width="0.164" height="45.567" fill="url(#linear-gradient-41)"/>
            </g>
            <g id="Group_37" data-name="Group 37" transform="translate(17.305 0.013)">
              <rect id="Rectangle_37" data-name="Rectangle 37" width="0.164" height="45.567" fill="url(#linear-gradient-42)"/>
            </g>
            <g id="Group_38" data-name="Group 38" transform="translate(17.785 0.013)">
              <rect id="Rectangle_38" data-name="Rectangle 38" width="0.164" height="45.567" fill="url(#linear-gradient-43)"/>
            </g>
            <g id="Group_39" data-name="Group 39" transform="translate(18.265 0.013)">
              <rect id="Rectangle_39" data-name="Rectangle 39" width="0.164" height="45.567" fill="url(#linear-gradient-44)"/>
            </g>
            <g id="Group_40" data-name="Group 40" transform="translate(18.757 0.013)">
              <rect id="Rectangle_40" data-name="Rectangle 40" width="0.164" height="45.567" fill="url(#linear-gradient-45)"/>
            </g>
            <g id="Group_41" data-name="Group 41" transform="translate(19.237 0.013)">
              <rect id="Rectangle_41" data-name="Rectangle 41" width="0.164" height="45.567" fill="url(#linear-gradient-46)"/>
            </g>
            <g id="Group_42" data-name="Group 42" transform="translate(19.716 0.013)">
              <rect id="Rectangle_42" data-name="Rectangle 42" width="0.164" height="45.567" fill="url(#linear-gradient-47)"/>
            </g>
            <g id="Group_43" data-name="Group 43" transform="translate(20.196 0.013)">
              <rect id="Rectangle_43" data-name="Rectangle 43" width="0.164" height="45.567" fill="url(#linear-gradient-48)"/>
            </g>
            <g id="Group_44" data-name="Group 44" transform="translate(20.688 0.013)">
              <rect id="Rectangle_44" data-name="Rectangle 44" width="0.164" height="45.567" fill="url(#linear-gradient-49)"/>
            </g>
            <g id="Group_45" data-name="Group 45" transform="translate(21.168 0.013)">
              <rect id="Rectangle_45" data-name="Rectangle 45" width="0.164" height="45.567" fill="url(#linear-gradient-50)"/>
            </g>
            <g id="Group_46" data-name="Group 46" transform="translate(21.647 0.013)">
              <rect id="Rectangle_46" data-name="Rectangle 46" width="0.164" height="45.567" fill="url(#linear-gradient-51)"/>
            </g>
            <g id="Group_47" data-name="Group 47" transform="translate(22.127 0.013)">
              <rect id="Rectangle_47" data-name="Rectangle 47" width="0.164" height="45.567" fill="url(#linear-gradient-52)"/>
            </g>
            <g id="Group_48" data-name="Group 48" transform="translate(22.619 0.013)">
              <rect id="Rectangle_48" data-name="Rectangle 48" width="0.164" height="45.567" fill="url(#linear-gradient-53)"/>
            </g>
            <g id="Group_49" data-name="Group 49" transform="translate(23.099 0.013)">
              <rect id="Rectangle_49" data-name="Rectangle 49" width="0.164" height="45.567" fill="url(#linear-gradient-54)"/>
            </g>
            <g id="Group_50" data-name="Group 50" transform="translate(23.579 0.013)">
              <rect id="Rectangle_50" data-name="Rectangle 50" width="0.164" height="45.567" fill="url(#linear-gradient-55)"/>
            </g>
            <g id="Group_51" data-name="Group 51" transform="translate(24.058 0.013)">
              <rect id="Rectangle_51" data-name="Rectangle 51" width="0.164" height="45.567" fill="url(#linear-gradient-56)"/>
            </g>
            <g id="Group_52" data-name="Group 52" transform="translate(24.551 0.013)">
              <rect id="Rectangle_52" data-name="Rectangle 52" width="0.164" height="45.567" fill="url(#linear-gradient-57)"/>
            </g>
            <g id="Group_53" data-name="Group 53" transform="translate(25.03 0.013)">
              <rect id="Rectangle_53" data-name="Rectangle 53" width="0.164" height="45.567" fill="url(#linear-gradient-58)"/>
            </g>
            <g id="Group_54" data-name="Group 54" transform="translate(25.51 0.013)">
              <rect id="Rectangle_54" data-name="Rectangle 54" width="0.164" height="45.567" fill="url(#linear-gradient-59)"/>
            </g>
            <g id="Group_55" data-name="Group 55" transform="translate(25.99 0.013)">
              <rect id="Rectangle_55" data-name="Rectangle 55" width="0.164" height="45.567" fill="url(#linear-gradient-60)"/>
            </g>
            <g id="Group_56" data-name="Group 56" transform="translate(26.482 0.013)">
              <rect id="Rectangle_56" data-name="Rectangle 56" width="0.164" height="45.567" fill="url(#linear-gradient-61)"/>
            </g>
            <g id="Group_57" data-name="Group 57" transform="translate(26.961 0.013)">
              <rect id="Rectangle_57" data-name="Rectangle 57" width="0.164" height="45.567" fill="url(#linear-gradient-62)"/>
            </g>
            <g id="Group_58" data-name="Group 58" transform="translate(27.441 0.013)">
              <rect id="Rectangle_58" data-name="Rectangle 58" width="0.164" height="45.567" fill="url(#linear-gradient-63)"/>
            </g>
            <g id="Group_59" data-name="Group 59" transform="translate(27.933 0.013)">
              <rect id="Rectangle_59" data-name="Rectangle 59" width="0.164" height="45.567" fill="url(#linear-gradient-64)"/>
            </g>
            <g id="Group_60" data-name="Group 60" transform="translate(28.413 0.013)">
              <rect id="Rectangle_60" data-name="Rectangle 60" width="0.164" height="45.567" fill="url(#linear-gradient-65)"/>
            </g>
            <g id="Group_61" data-name="Group 61" transform="translate(28.893 0.013)">
              <rect id="Rectangle_61" data-name="Rectangle 61" width="0.164" height="45.567" fill="url(#linear-gradient-66)"/>
            </g>
            <g id="Group_62" data-name="Group 62" transform="translate(29.372 0.013)">
              <rect id="Rectangle_62" data-name="Rectangle 62" width="0.164" height="45.567" fill="url(#linear-gradient-67)"/>
            </g>
            <g id="Group_63" data-name="Group 63" transform="translate(29.865 0.013)">
              <rect id="Rectangle_63" data-name="Rectangle 63" width="0.164" height="45.567" fill="url(#linear-gradient-68)"/>
            </g>
            <g id="Group_64" data-name="Group 64" transform="translate(30.344 0.013)">
              <rect id="Rectangle_64" data-name="Rectangle 64" width="0.164" height="45.567" fill="url(#linear-gradient-69)"/>
            </g>
            <g id="Group_65" data-name="Group 65" transform="translate(30.824 0.013)">
              <rect id="Rectangle_65" data-name="Rectangle 65" width="0.164" height="45.567" fill="url(#linear-gradient-70)"/>
            </g>
            <g id="Group_66" data-name="Group 66" transform="translate(31.304 0.013)">
              <rect id="Rectangle_66" data-name="Rectangle 66" width="0.164" height="45.567" fill="url(#linear-gradient-71)"/>
            </g>
            <g id="Group_67" data-name="Group 67" transform="translate(31.796 0.013)">
              <rect id="Rectangle_67" data-name="Rectangle 67" width="0.164" height="45.567" fill="url(#linear-gradient-72)"/>
            </g>
            <g id="Group_68" data-name="Group 68" transform="translate(32.275 0.013)">
              <rect id="Rectangle_68" data-name="Rectangle 68" width="0.164" height="45.567" fill="url(#linear-gradient-73)"/>
            </g>
            <g id="Group_69" data-name="Group 69" transform="translate(32.755 0.013)">
              <rect id="Rectangle_69" data-name="Rectangle 69" width="0.164" height="45.567" fill="url(#linear-gradient-74)"/>
            </g>
            <g id="Group_70" data-name="Group 70" transform="translate(33.235 0.013)">
              <rect id="Rectangle_70" data-name="Rectangle 70" width="0.164" height="45.567" fill="url(#linear-gradient-75)"/>
            </g>
            <g id="Group_71" data-name="Group 71" transform="translate(33.727 0.013)">
              <rect id="Rectangle_71" data-name="Rectangle 71" width="0.164" height="45.567" fill="url(#linear-gradient-76)"/>
            </g>
            <g id="Group_72" data-name="Group 72" transform="translate(34.207 0.013)">
              <rect id="Rectangle_72" data-name="Rectangle 72" width="0.164" height="45.567" fill="url(#linear-gradient-77)"/>
            </g>
            <g id="Group_73" data-name="Group 73" transform="translate(34.686 0.013)">
              <rect id="Rectangle_73" data-name="Rectangle 73" width="0.164" height="45.567" fill="url(#linear-gradient-78)"/>
            </g>
            <g id="Group_74" data-name="Group 74" transform="translate(35.166 0.013)">
              <rect id="Rectangle_74" data-name="Rectangle 74" width="0.164" height="45.567" fill="url(#linear-gradient-79)"/>
            </g>
            <g id="Group_75" data-name="Group 75" transform="translate(35.658 0.013)">
              <rect id="Rectangle_75" data-name="Rectangle 75" width="0.164" height="45.567" fill="url(#linear-gradient-80)"/>
            </g>
            <g id="Group_76" data-name="Group 76" transform="translate(36.138 0.013)">
              <rect id="Rectangle_76" data-name="Rectangle 76" width="0.164" height="45.567" fill="url(#linear-gradient-39)"/>
            </g>
            <g id="Group_77" data-name="Group 77" transform="translate(36.618 0.013)">
              <rect id="Rectangle_77" data-name="Rectangle 77" width="0.164" height="45.567" fill="url(#linear-gradient-82)"/>
            </g>
            <g id="Group_78" data-name="Group 78" transform="translate(37.097 0.013)">
              <rect id="Rectangle_78" data-name="Rectangle 78" width="0.164" height="45.567" fill="url(#linear-gradient-83)"/>
            </g>
            <g id="Group_79" data-name="Group 79" transform="translate(37.59 0.013)">
              <rect id="Rectangle_79" data-name="Rectangle 79" width="0.164" height="45.567" fill="url(#linear-gradient-84)"/>
            </g>
            <g id="Group_80" data-name="Group 80" transform="translate(38.069 0.013)">
              <rect id="Rectangle_80" data-name="Rectangle 80" width="0.164" height="45.567" fill="url(#linear-gradient-85)"/>
            </g>
            <g id="Group_81" data-name="Group 81" transform="translate(38.549 0.013)">
              <rect id="Rectangle_81" data-name="Rectangle 81" width="0.164" height="45.567" fill="url(#linear-gradient-86)"/>
            </g>
            <g id="Group_82" data-name="Group 82" transform="translate(39.041 0.013)">
              <rect id="Rectangle_82" data-name="Rectangle 82" width="0.164" height="45.567" fill="url(#linear-gradient-87)"/>
            </g>
          </g>
        </g>
        <g id="Group_95" data-name="Group 95" transform="translate(10.363 6.614)" opacity="0.1">
          <g id="Group_85" data-name="Group 85" transform="translate(35.658 11.802)">
            <path id="Path_3" data-name="Path 3" d="M415.605,340.463l-.05-.063-6.955-7.371V320.735l.114-.114,6.9-7.321.593.555-.051.063-6.753,7.157V332.7L416.2,339.9Zm-6.854-7.5.063.063,6.791,7.195.353-.341-6.728-7.119V321l.025-.025,6.7-7.106-.353-.341-6.854,7.271Z" transform="translate(-408.6 -313.3)" fill="url(#linear-gradient-88)"/>
          </g>
          <g id="Group_87" data-name="Group 87" transform="translate(23.856)">
            <g id="Group_86" data-name="Group 86">
              <path id="Path_4" data-name="Path 4" d="M333.87,232.22l-.038-.063a24.756,24.756,0,0,0-18.656-11.537l-.076-.013.076-.808.076.013a25.57,25.57,0,0,1,19.274,11.916l.038.063Zm-18.605-11.751a24.9,24.9,0,0,1,18.656,11.537l.417-.252a25.384,25.384,0,0,0-19.022-11.764Z" transform="translate(-315.1 -219.8)" fill="url(#linear-gradient-89)"/>
            </g>
          </g>
          <g id="Group_89" data-name="Group 89" transform="translate(29.738 38.322)">
            <g id="Group_88" data-name="Group 88">
              <path id="Path_5" data-name="Path 5" d="M361.965,534.445l-.265-.77.076-.025A24.775,24.775,0,0,0,374.5,523.463l.038-.063.694.429-.038.063a25.489,25.489,0,0,1-13.14,10.514Zm-.063-.669.164.454A25.477,25.477,0,0,0,375,523.88l-.417-.265A24.816,24.816,0,0,1,361.9,533.776Z" transform="translate(-361.7 -523.4)" fill="url(#linear-gradient-90)"/>
            </g>
          </g>
          <g id="Group_90" data-name="Group 90" transform="translate(0.05 11.827)">
            <path id="Path_6" data-name="Path 6" d="M127.093,340.638l-.593-.555.05-.063,6.74-7.132V321.25l-6.791-7.195.593-.555.05.063,6.955,7.372v12.282l-.114.114Zm-.353-.568.353.341,6.854-7.27V320.985l-.063-.076-6.791-7.195-.353.341,6.728,7.132v11.764Z" transform="translate(-126.5 -313.5)" fill="url(#linear-gradient-91)"/>
          </g>
          <g id="Group_92" data-name="Group 92">
            <g id="Group_91" data-name="Group 91">
              <path id="Path_7" data-name="Path 7" d="M126.794,232.22l-.694-.429.038-.063a25.569,25.569,0,0,1,19.274-11.916l.076-.013.076.808-.076.013a24.734,24.734,0,0,0-18.656,11.537Zm-.467-.48.417.252A24.9,24.9,0,0,1,145.4,220.456l-.05-.492A25.433,25.433,0,0,0,126.327,231.741Z" transform="translate(-126.1 -219.8)" fill="url(#linear-gradient-92)"/>
            </g>
          </g>
          <g id="Group_94" data-name="Group 94" transform="translate(0.05 38.334)">
            <g id="Group_93" data-name="Group 93">
              <path id="Path_8" data-name="Path 8" d="M139.754,534.532l-.076-.025a25.614,25.614,0,0,1-13.14-10.514l-.038-.063.694-.429.038.063a24.788,24.788,0,0,0,12.723,10.186l.076.025Zm-13.039-10.565a25.348,25.348,0,0,0,12.938,10.35l.164-.454a24.972,24.972,0,0,1-12.686-10.148Z" transform="translate(-126.5 -523.5)" fill="url(#linear-gradient-93)"/>
            </g>
          </g>
        </g>
        <g id="Group_114" data-name="Group 114" transform="translate(50.666 19.199)" opacity="0.1">
          <g id="Group_102" data-name="Group 102" transform="translate(0 0.353)">
            <g id="Group_96" data-name="Group 96" transform="translate(0.909 3.736)">
              <path id="Path_9" data-name="Path 9" d="M453.433,356.192l-.833-.467v-2.941l.833-.884Zm-.5-.669.177.1v-2.916l-.177.189Z" transform="translate(-452.6 -351.9)" fill="url(#linear-gradient-94)"/>
            </g>
            <g id="Group_97" data-name="Group 97" transform="translate(2.651 1.906)">
              <path id="Path_10" data-name="Path 10" d="M467.233,344.506l-.833-.467v-5.756l.833-.884Zm-.517-.669.177.1v-5.731l-.177.189Z" transform="translate(-466.4 -337.4)" fill="url(#linear-gradient-95)"/>
            </g>
            <g id="Group_98" data-name="Group 98" transform="translate(1.78 2.827)">
              <path id="Path_11" data-name="Path 11" d="M460.333,350.393l-.833-.467v-4.342l.833-.884Zm-.5-.669.177.1V345.5l-.177.189Z" transform="translate(-459.5 -344.7)" fill="url(#linear-gradient-96)"/>
            </g>
            <g id="Group_99" data-name="Group 99" transform="translate(0 4.658)">
              <path id="Path_12" data-name="Path 12" d="M446.271,362.078l-.871-.492v-1.464l.871-.921Zm-.543-.682.215.126v-1.5l-.215.227Z" transform="translate(-445.4 -359.2)" fill="url(#linear-gradient-97)"/>
            </g>
            <g id="Group_100" data-name="Group 100" transform="translate(3.509 0.972)">
              <path id="Path_13" data-name="Path 13" d="M474.033,338.533l-.833-.467v-7.182l.833-.884Zm-.5-.669.177.1V330.82l-.177.189Z" transform="translate(-473.2 -330)" fill="url(#linear-gradient-98)"/>
            </g>
            <g id="Group_101" data-name="Group 101" transform="translate(4.38)">
              <path id="Path_14" data-name="Path 14" d="M480.984,332.322l-.884-.5v-8.583l.884-.934Zm-.555-.694.227.126V323.12l-.227.24Z" transform="translate(-480.1 -322.3)" fill="url(#linear-gradient-99)"/>
            </g>
          </g>
          <g id="Group_104" data-name="Group 104" transform="translate(5.516)">
            <g id="Group_103" data-name="Group 103">
              <path id="Path_15" data-name="Path 15" d="M492.357,331.946l-3.257-1.931V319.5l.972,2.259v7.7l2.3,1.363Zm-2.928-2.121,2.613,1.553V331l-2.285-1.363v-7.851l-.328-.745Z" transform="translate(-489.1 -319.5)" fill="url(#linear-gradient-100)"/>
            </g>
          </g>
          <g id="Group_111" data-name="Group 111" transform="translate(0 15.122)">
            <g id="Group_105" data-name="Group 105" transform="translate(0.909 2.02)">
              <path id="Path_16" data-name="Path 16" d="M453.433,459.579l-.833-.884v-2.928l.833-.467Zm-.5-1.01.177.189v-2.916l-.177.1Z" transform="translate(-452.6 -455.3)" fill="url(#linear-gradient-101)"/>
            </g>
            <g id="Group_106" data-name="Group 106" transform="translate(2.651 1.035)">
              <path id="Path_17" data-name="Path 17" d="M467.233,454.606l-.833-.884v-5.756l.833-.467Zm-.517-1.01.177.189v-5.731l-.177.1Z" transform="translate(-466.4 -447.5)" fill="url(#linear-gradient-102)"/>
            </g>
            <g id="Group_107" data-name="Group 107" transform="translate(1.78 1.527)">
              <path id="Path_18" data-name="Path 18" d="M460.333,457.093l-.833-.884v-4.342l.833-.467Zm-.5-1.01.177.189v-4.33l-.177.1Z" transform="translate(-459.5 -451.4)" fill="url(#linear-gradient-103)"/>
            </g>
            <g id="Group_108" data-name="Group 108" transform="translate(0 2.499)">
              <path id="Path_19" data-name="Path 19" d="M446.271,461.978l-.871-.921v-1.464l.871-.492Zm-.543-1.048.215.227v-1.5l-.215.126Z" transform="translate(-445.4 -459.1)" fill="url(#linear-gradient-104)"/>
            </g>
            <g id="Group_109" data-name="Group 109" transform="translate(3.509 0.543)">
              <path id="Path_20" data-name="Path 20" d="M474.033,452.12l-.833-.884v-7.17l.833-.467Zm-.5-1.022.177.189v-7.144l-.177.1Z" transform="translate(-473.2 -443.6)" fill="url(#linear-gradient-105)"/>
            </g>
            <g id="Group_110" data-name="Group 110" transform="translate(4.38)">
              <path id="Path_21" data-name="Path 21" d="M480.984,449.322l-.884-.934V439.8l.884-.5Zm-.555-1.06.227.24v-8.634l-.227.126Z" transform="translate(-480.1 -439.3)" fill="url(#linear-gradient-106)"/>
            </g>
          </g>
          <g id="Group_113" data-name="Group 113" transform="translate(5.516 13.064)">
            <g id="Group_112" data-name="Group 112">
              <path id="Path_22" data-name="Path 22" d="M489.1,435.446V424.931L492.357,423l.013,1.123-2.3,1.363-.013,7.763Zm.328-10.325v8.785l.328-.745V425.31l2.285-1.363v-.379Z" transform="translate(-489.1 -423)" fill="url(#linear-gradient-107)"/>
            </g>
          </g>
        </g>
        <g id="Group_133" data-name="Group 133" transform="translate(4.582 19.199)" opacity="0.1">
          <g id="Group_121" data-name="Group 121" transform="translate(3.522 0.366)">
            <g id="Group_115" data-name="Group 115" transform="translate(3.522 3.724)">
              <path id="Path_23" data-name="Path 23" d="M136.1,356.192V351.9l.833.884v2.941Zm.328-3.471v2.916l.177-.1v-2.613Z" transform="translate(-136.1 -351.9)" fill="url(#linear-gradient-108)"/>
            </g>
            <g id="Group_116" data-name="Group 116" transform="translate(1.78 1.893)">
              <path id="Path_24" data-name="Path 24" d="M122.3,344.506V337.4l.833.884v5.756Zm.328-6.3v5.731l.177-.1V338.4Z" transform="translate(-122.3 -337.4)" fill="url(#linear-gradient-109)"/>
            </g>
            <g id="Group_117" data-name="Group 117" transform="translate(2.651 2.802)">
              <path id="Path_25" data-name="Path 25" d="M129.2,350.305V344.6l.833.884v4.342Zm.328-4.885v4.329l.177-.1v-4.027Z" transform="translate(-129.2 -344.6)" fill="url(#linear-gradient-110)"/>
            </g>
            <g id="Group_118" data-name="Group 118" transform="translate(4.393 4.645)">
              <path id="Path_26" data-name="Path 26" d="M143,362.078V359.2l.871.921v1.464Zm.316-2.057v1.5l.215-.126v-1.149Z" transform="translate(-143 -359.2)" fill="url(#linear-gradient-111)"/>
            </g>
            <g id="Group_119" data-name="Group 119" transform="translate(0.909 0.972)">
              <path id="Path_27" data-name="Path 27" d="M115.4,338.62V330.1l.833.884v7.17Zm.328-7.712v7.144l.177-.1V331.1Z" transform="translate(-115.4 -330.1)" fill="url(#linear-gradient-112)"/>
            </g>
            <g id="Group_120" data-name="Group 120">
              <path id="Path_28" data-name="Path 28" d="M108.2,332.41V322.4l.884.934v8.583Zm.328-9.2v8.634l.227-.126v-8.268Z" transform="translate(-108.2 -322.4)" fill="url(#linear-gradient-113)"/>
            </g>
          </g>
          <g id="Group_123" data-name="Group 123">
            <g id="Group_122" data-name="Group 122">
              <path id="Path_29" data-name="Path 29" d="M80.313,331.946l-.013-1.123,2.3-1.363.013-7.763.959-2.2v10.514Zm.316-.947v.379l2.613-1.553V321.04l-.328.745v7.851Z" transform="translate(-80.3 -319.5)" fill="url(#linear-gradient-114)"/>
            </g>
          </g>
          <g id="Group_130" data-name="Group 130" transform="translate(3.522 15.134)">
            <g id="Group_124" data-name="Group 124" transform="translate(3.522 1.994)">
              <path id="Path_30" data-name="Path 30" d="M136.1,459.492V455.2l.833.467v2.941Zm.328-3.736v2.916l.177-.189v-2.613Z" transform="translate(-136.1 -455.2)" fill="url(#linear-gradient-115)"/>
            </g>
            <g id="Group_125" data-name="Group 125" transform="translate(1.78 1.01)">
              <path id="Path_31" data-name="Path 31" d="M122.3,454.519V447.4l.833.467v5.756Zm.328-6.564v5.731l.177-.189v-5.44Z" transform="translate(-122.3 -447.4)" fill="url(#linear-gradient-116)"/>
            </g>
            <g id="Group_126" data-name="Group 126" transform="translate(2.651 1.502)">
              <path id="Path_32" data-name="Path 32" d="M129.2,457.005V451.3l.833.467v4.342Zm.328-5.15v4.329L129.7,456v-4.027Z" transform="translate(-129.2 -451.3)" fill="url(#linear-gradient-117)"/>
            </g>
            <g id="Group_127" data-name="Group 127" transform="translate(4.393 2.487)">
              <path id="Path_33" data-name="Path 33" d="M143,461.978V459.1l.871.492v1.464Zm.316-2.323v1.5l.215-.227v-1.149Z" transform="translate(-143 -459.1)" fill="url(#linear-gradient-118)"/>
            </g>
            <g id="Group_128" data-name="Group 128" transform="translate(0.909 0.53)">
              <path id="Path_34" data-name="Path 34" d="M115.4,452.12V443.6l.833.467v7.17Zm.328-7.977v7.144l.177-.189v-6.854Z" transform="translate(-115.4 -443.6)" fill="url(#linear-gradient-119)"/>
            </g>
            <g id="Group_129" data-name="Group 129">
              <path id="Path_35" data-name="Path 35" d="M108.2,449.41V439.4l.884.5v8.583Zm.328-9.454v8.634l.227-.24v-8.268Z" transform="translate(-108.2 -439.4)" fill="url(#linear-gradient-120)"/>
            </g>
          </g>
          <g id="Group_132" data-name="Group 132" transform="translate(0 13.064)">
            <g id="Group_131" data-name="Group 131">
              <path id="Path_36" data-name="Path 36" d="M83.569,435.446l-.972-2.259v-7.7l-2.3-1.363L80.313,423l3.257,1.931Zm-.656-2.285.328.745V425.12l-2.613-1.553v.379l2.285,1.363Z" transform="translate(-80.3 -423)" fill="url(#linear-gradient-121)"/>
            </g>
          </g>
        </g>
        <g id="Group_134" data-name="Group 134" transform="translate(8.015 4.797)" opacity="0.1">
          <path id="Path_37" data-name="Path 37" d="M122.634,258.4l-.164-.051a27.262,27.262,0,0,1-14.882-12.61l-.088-.177.151-.151,7.321-7.75V227.552l-7.472-7.927.088-.151a27.172,27.172,0,0,1,21.584-14.036h.278v3.9h-.518v-3.358a26.755,26.755,0,0,0-20.8,13.569l7.346,7.775v10.54l-.076.076-7.283,7.712a26.753,26.753,0,0,0,14.326,12.13l3.408-3.61h11.234l3.408,3.61a26.833,26.833,0,0,0,14.339-12.155l-7.321-7.775V227.338l.076-.088,7.271-7.7a26.732,26.732,0,0,0-20.8-13.594V209.3h-.518v-3.9h.278a27.2,27.2,0,0,1,21.6,14.061l.1.164-.151.139-7.321,7.75v10.148l7.321,7.75.151.114-.038.076a27.246,27.246,0,0,1-14.945,12.736l-.164.051-.114-.114-3.37-3.572h-10.78Zm3.4-3.888h10.944l3.459,3.661.038-.013a27.023,27.023,0,0,0,14.793-12.572l-.025-.025-7.384-7.826V227.464l.025-.025,7.384-7.826-.025-.038a27.023,27.023,0,0,0-21.433-13.96h-.076v3.522h.126v-3.37l.1.013a26.915,26.915,0,0,1,21.092,13.771l.038.063-.05.05-7.334,7.763V237.8l.025.025,7.359,7.788-.038.063a26.933,26.933,0,0,1-14.541,12.332l-.063.025-3.433-3.648H125.954l-3.433,3.648-.063-.025A26.958,26.958,0,0,1,107.929,245.7l-.038-.063,7.4-7.839V227.426l-.013-.013-7.384-7.826.038-.063a26.937,26.937,0,0,1,21.092-13.746l.1-.013v3.37h.126v-3.509h-.076a26.994,26.994,0,0,0-21.42,13.935l-.013.025.063.063,7.371,7.813v10.275l-.025.025L107.74,245.6l.025.038a27.065,27.065,0,0,0,14.756,12.509l.038.013.025-.025Z" transform="translate(-107.5 -205.4)" fill="url(#linear-gradient-122)"/>
        </g>
      </g>
      <g id="Group_146" data-name="Group 146" transform="translate(58.137 182.092)">
        <g id="Group_142" data-name="Group 142" transform="translate(0 0)">
          <path id="Path_38" data-name="Path 38" d="M156,284.191l12.9-.391-4.317,1.01,6.728,4.229-8.129,3.408Z" transform="translate(-156 -283.8)" fill="url(#linear-gradient-123)"/>
          <path id="Path_39" data-name="Path 39" d="M162.336,296.089,156,286.9l7.182,8.255Z" transform="translate(-156 -286.509)" fill="#27334d"/>
          <g id="Group_136" data-name="Group 136" transform="translate(7.308 1.242)">
            <path id="Path_40" data-name="Path 40" d="M213.9,351.125h0c.013,0,.025-.013.05-.025C213.938,351.113,213.913,351.113,213.9,351.125Z" transform="translate(-213.9 -343.847)" fill="url(#linear-gradient-124)"/>
            <path id="Path_41" data-name="Path 41" d="M242.613,294.255c-.2,1.123-2.247,3.6-5.15,6.526a121.349,121.349,0,0,1-14.175,12.143,12.69,12.69,0,0,0,2.562-2.764,8.074,8.074,0,0,0,1.073-2.348,8.862,8.862,0,0,0,.227-1.287,3.4,3.4,0,0,1,.088-1.073,3.079,3.079,0,0,1,.53-.745c1.376-1.54,2.739-3.08,4.115-4.607.871-.972,1.729-1.944,2.6-2.9q-2.48,1.78-5.074,3.37c-1.2.745-2.411,1.452-3.635,2.158a2.8,2.8,0,0,1-.985.353,1.8,1.8,0,0,1-.921-.126c-.77-.341-1.553-.682-2.36-.959-.732-.252-1.477-.467-2.222-.656a28.321,28.321,0,0,0-3.408-.606,3.538,3.538,0,0,0-1.5.076.989.989,0,0,0-.177.063,111.625,111.625,0,0,1,18.025-6.4c.808-.215,1.616-.429,2.449-.631a6.436,6.436,0,0,1,3.749.177l.025.013c.682-.025,1.351-.038,2.007-.013h0C241.2,294.065,241.906,294.141,242.613,294.255Z" transform="translate(-214.162 -293.641)" fill="url(#linear-gradient-125)"/>
          </g>
          <path id="Path_42" data-name="Path 42" d="M256.922,344.343c-.732-.252-1.477-.467-2.222-.656a9.3,9.3,0,0,1,4.708-1.59c1.464.013,2.865.631,4.317.783a7.8,7.8,0,0,0,1.086.038c-1.2.745-2.411,1.452-3.635,2.158a2.8,2.8,0,0,1-.985.353,1.8,1.8,0,0,1-.921-.126C258.5,344.948,257.717,344.62,256.922,344.343Z" transform="translate(-242.242 -334.737)" fill="url(#linear-gradient-126)"/>
          <path id="Path_43" data-name="Path 43" d="M305.525,296.927c-.2,1.123-2.247,3.6-5.15,6.526A121.341,121.341,0,0,1,286.2,315.6a12.689,12.689,0,0,0,2.562-2.764,8.075,8.075,0,0,0,1.073-2.348,8.863,8.863,0,0,0,.227-1.288,3.4,3.4,0,0,1,.088-1.073,3.078,3.078,0,0,1,.53-.745c1.376-1.54,2.739-3.08,4.115-4.607a24.53,24.53,0,0,0,4.115-1.843,29.089,29.089,0,0,0,2.7-1.59c.644-.429,1.78-.909,1.931-1.742a1.318,1.318,0,0,0-.177-.9A19.822,19.822,0,0,1,305.525,296.927Z" transform="translate(-269.766 -295.072)" fill="url(#linear-gradient-127)"/>
          <path id="Path_44" data-name="Path 44" d="M307.009,331.451a75.592,75.592,0,0,1-7.409,6.172c.669-1.628,1.338-3.257,2.007-4.9a5.808,5.808,0,0,1,.631-1.25,6.173,6.173,0,0,1,1.325-1.237c1.136-.846,2.285-1.666,3.446-2.5.921-.656,1.83-1.313,2.752-1.956.454-.316.9-.644,1.351-.959a7.384,7.384,0,0,1,1.351-.934c.063-.025-.038.29-.038.278-.063.164-.164.328-.24.492l-.492.909a25.725,25.725,0,0,1-3.206,4.367Q307.748,330.712,307.009,331.451Z" transform="translate(-281.474 -318.828)" fill="#c2aed5"/>
          <path id="Path_45" data-name="Path 45" d="M324.973,321.082c-1.338,1.174-2.638,2.259-3.9,3.282a85.053,85.053,0,0,1-7.005,5.1l-.467-.215,7.75-8.154c.177-.025.366-.05.543-.063A13.211,13.211,0,0,1,324.973,321.082Z" transform="translate(-293.707 -316.273)" fill="#d9825a"/>
          <path id="Path_46" data-name="Path 46" d="M250.547,305.276c-1.048.48-2.133,1-3.181,1.5s-2.133,1.022-3.181,1.5l-.013.013-.013-.013a20.832,20.832,0,0,0-2.222-.972c-2.954,1.086-6.1,2.272-9.113,3.724l-.025-.063c3.029-1.464,6.172-2.651,9.139-3.736h.025a21.117,21.117,0,0,1,2.234.972c1.048-.48,2.121-1,3.168-1.5s2.133-1.022,3.181-1.5Z" transform="translate(-223.106 -302.499)" fill="#e4d4c9"/>
          <path id="Path_47" data-name="Path 47" d="M334.648,313.342l-.3-.189a2.226,2.226,0,0,0-.29-.177,7.667,7.667,0,0,0-1.641.82l.429.328-.038.051-.5-.391.038-.025a8.391,8.391,0,0,1,1.717-.858h.013l.013.013.3.189.3.189Z" transform="translate(-310.047 -309.227)" fill="#e4d4c9"/>
          <path id="Path_48" data-name="Path 48" d="M388.735,299.953l-.038.013a8.457,8.457,0,0,0-.846.4c-.126.063-.265.126-.379.189l-.025.013-.013-.013a1.5,1.5,0,0,0-.972-.5l-.063-.013.013-.063.063.013a1.638,1.638,0,0,1,1,.517c.114-.05.227-.114.353-.177.278-.139.555-.278.808-.379a1.035,1.035,0,0,0-.82-.29V299.6a1.1,1.1,0,0,1,.909.353Z" transform="translate(-357.318 -297.606)" fill="#e4d4c9"/>
          <g id="Group_137" data-name="Group 137" transform="translate(25.384 1.255)">
            <path id="Path_49" data-name="Path 49" d="M363.323,294.127c-1.351.492-2.3.77-3.787,1.439a4.9,4.9,0,0,0-2.436-1c.808-.215,1.616-.429,2.449-.631a6.437,6.437,0,0,1,3.749.177Z" transform="translate(-357.1 -293.741)" fill="#2b354d"/>
            <path id="Path_50" data-name="Path 50" d="M380.408,294.967a7.151,7.151,0,0,0-1.351.48,6.042,6.042,0,0,0-2.057-.593A6.048,6.048,0,0,1,380.408,294.967Z" transform="translate(-374.488 -294.543)" fill="url(#linear-gradient-128)"/>
          </g>
          <path id="Path_51" data-name="Path 51" d="M232.785,333.391a8.669,8.669,0,0,1-7.472-2.891c-1.755.694-3.522,1.388-5.276,2.083-.379.152-.745.4-1.136.518a23.928,23.928,0,0,1,9.378,2.865,1.548,1.548,0,0,0,1.035.29,1.657,1.657,0,0,0,.593-.3C230.942,335.208,231.813,334.224,232.785,333.391Z" transform="translate(-210.96 -324.605)" fill="#c2aed5"/>
          <path id="Path_52" data-name="Path 52" d="M349.029,320.876l-2.562,1.679c-.53.53-1.452,1.641-1.464,1.654h-.013c-.013.013-1.83.921-2.764,1.275l-.025-.063c.909-.353,2.638-1.212,2.752-1.275.076-.088.947-1.136,1.464-1.654l2.575-1.691Z" transform="translate(-318.697 -316.13)" fill="#e4d4c9"/>
          <path id="Path_53" data-name="Path 53" d="M321.907,321.476c-.126.4-.252.82-.379,1.237a9.367,9.367,0,0,0-.543,2.02.114.114,0,0,1-.013.063,85.05,85.05,0,0,1-7.005,5.1l-.467-.215,7.75-8.154c.177-.025.366-.051.543-.063A.158.158,0,0,1,321.907,321.476Z" transform="translate(-293.62 -316.705)" fill="#c2aed5"/>
          <g id="Group_141" data-name="Group 141" transform="translate(4.241 4.797)">
            <path id="Path_54" data-name="Path 54" d="M195.015,439.518l-5.415,3.307,4.241-5.125Z" transform="translate(-189.6 -423.071)" fill="#27334d"/>
            <path id="Path_55" data-name="Path 55" d="M215.155,327.695a1.679,1.679,0,0,1-.921-.126c-.77-.341-1.553-.682-2.36-.959a26.111,26.111,0,0,0-5.63-1.25,3.538,3.538,0,0,0-1.5.076,2.635,2.635,0,0,0-1.54,2.31,7.611,7.611,0,0,0,.2,2.613,23.118,23.118,0,0,0,1.717,4.91,8.989,8.989,0,0,0,2.55,3.711,3.252,3.252,0,0,0,2.171.568,6.1,6.1,0,0,0,2.992-1.388,13.838,13.838,0,0,0,3.37-3.383,8.076,8.076,0,0,0,1.073-2.348,8.868,8.868,0,0,0,.227-1.288,3.4,3.4,0,0,1,.088-1.073,3.079,3.079,0,0,1,.53-.745c2.234-2.512,4.468-5.011,6.715-7.523a99.372,99.372,0,0,1-8.71,5.529A2.462,2.462,0,0,1,215.155,327.695Z" transform="translate(-201.447 -321.8)" fill="#27334d"/>
            <g id="Group_138" data-name="Group 138" transform="translate(3.34 13.283)">
              <path id="Path_56" data-name="Path 56" d="M223.477,427.512a3.333,3.333,0,0,1,.4.467l.076.114a2.318,2.318,0,0,1,.366,1.048,1.607,1.607,0,0,1,.013.24h0a1.985,1.985,0,0,1-.013.252,3.2,3.2,0,0,1-.858,1.288l-2.764-3.358a2.727,2.727,0,0,1,2.171-.429,1.785,1.785,0,0,1,.227.1A1.692,1.692,0,0,1,223.477,427.512Z" transform="translate(-220.114 -427.037)" fill="#3d4d62"/>
              <path id="Path_57" data-name="Path 57" d="M228.228,427.8a2.965,2.965,0,0,0-1.54.656l-.088-.1a2.934,2.934,0,0,1,1.4-.656A1.792,1.792,0,0,1,228.228,427.8Z" transform="translate(-225.269 -427.616)" fill="#354258"/>
              <path id="Path_58" data-name="Path 58" d="M238.023,434.5l.076.114a7.387,7.387,0,0,1-1.136.694l-.063-.114A9.9,9.9,0,0,0,238.023,434.5Z" transform="translate(-234.269 -433.558)" fill="#354258"/>
              <path id="Path_59" data-name="Path 59" d="M242.5,443.6a1.61,1.61,0,0,1,.013.24h0a2.462,2.462,0,0,1-.215.29,2.845,2.845,0,0,1-.719.631l-.076-.114A2.843,2.843,0,0,0,242.5,443.6Z" transform="translate(-238.289 -441.509)" fill="#354258"/>
              <path id="Path_60" data-name="Path 60" d="M216.064,431.334a.973.973,0,0,1,.669-1.086,1.878,1.878,0,0,1,1.7.5c.732.581,1.893,2.815.417,3.269a1.918,1.918,0,0,1-1.755-.694A3.65,3.65,0,0,1,216.064,431.334Z" transform="translate(-216.059 -429.786)" fill="#354258"/>
              <path id="Path_61" data-name="Path 61" d="M219.58,432.086a3.392,3.392,0,0,1,1.01,1.843.9.9,0,0,1-.631,1.111,1.032,1.032,0,0,1-.618-.013,1.092,1.092,0,0,1-.215-.088,2.962,2.962,0,0,1-.757-.543,3.206,3.206,0,0,1-.252-.29,2.148,2.148,0,0,1-.139-.177,3.022,3.022,0,0,1-.543-1.325v-.013a.845.845,0,0,1,0-.252.836.836,0,0,1,.606-.72,1.159,1.159,0,0,1,.467-.05A2.5,2.5,0,0,1,219.58,432.086Z" transform="translate(-217.253 -430.992)" fill="#557983"/>
              <path id="Path_62" data-name="Path 62" d="M218.332,435.2l.051.215a7.863,7.863,0,0,0-1.048.353.847.847,0,0,1,0-.252C217.663,435.4,217.991,435.288,218.332,435.2Z" transform="translate(-217.165 -434.17)" fill="#6a97a0"/>
              <path id="Path_63" data-name="Path 63" d="M222.836,444.5l.088.2a4.274,4.274,0,0,0-1.086.719,2.158,2.158,0,0,1-.139-.177A4.531,4.531,0,0,1,222.836,444.5Z" transform="translate(-220.988 -442.296)" fill="#6a97a0"/>
              <path id="Path_64" data-name="Path 64" d="M231.809,448.688a5.186,5.186,0,0,1-.694,1.237,1.092,1.092,0,0,1-.215-.088,5.23,5.23,0,0,0,.707-1.237Z" transform="translate(-229.027 -445.878)" fill="#6a97a0"/>
              <path id="Path_65" data-name="Path 65" d="M226.006,432.2a3.35,3.35,0,0,1,.972,1.641c.013.063.025.139.038.2a1.06,1.06,0,0,1-.391.063,1.272,1.272,0,0,1-.316-.038,1.841,1.841,0,0,1-.745-.391,2.254,2.254,0,0,1-.581-.757,1.474,1.474,0,0,1-.177-.947.719.719,0,0,1,.139-.278,1.668,1.668,0,0,1,.417.1A3.439,3.439,0,0,1,226.006,432.2Z" transform="translate(-223.678 -431.111)" fill="#84cdc3"/>
              <path id="Path_66" data-name="Path 66" d="M229.766,432.991a3.35,3.35,0,0,1,.972,1.641,1.188,1.188,0,0,1-1-.24.492.492,0,0,1-.2-.341.371.371,0,0,1,.151-.29c-.189-.252-.644-.77-.606-1.161A2.4,2.4,0,0,1,229.766,432.991Z" transform="translate(-227.438 -431.898)" fill="#acddda"/>
            </g>
            <g id="Group_139" data-name="Group 139" transform="translate(1.633 5.063)">
              <path id="Path_67" data-name="Path 67" d="M216.881,363.589l.151.151a6.206,6.206,0,0,1,1.174,1.868.875.875,0,0,1,.063.164,4.442,4.442,0,0,1,.164.543v.013a5.418,5.418,0,0,1,.151,1.275,2.043,2.043,0,0,1-.013.278,4.69,4.69,0,0,1-.4,1.59h0c-.025.063-.063.126-.088.189-.025.038-.038.076-.063.114-.038.063-.076.114-.114.177h0a9.123,9.123,0,0,1-2.272,1.919l-5.933-8.621c-.013-.013.783-.467.82-.492a7.936,7.936,0,0,1,2.121-.783,4.188,4.188,0,0,1,2.3.252c.126.05.265.114.391.177A6.42,6.42,0,0,1,216.881,363.589Z" transform="translate(-208.795 -361.912)" fill="#3d4d62"/>
              <path id="Path_68" data-name="Path 68" d="M226.938,364.777a7.1,7.1,0,0,0-3.85.985L223,365.61a7.34,7.34,0,0,1,3.547-1.01A3.685,3.685,0,0,1,226.938,364.777Z" transform="translate(-220.417 -364.261)" fill="#354258"/>
              <path id="Path_69" data-name="Path 69" d="M248.6,375.2l.152.151a6.941,6.941,0,0,0-2.663.9L246,376.1A7.086,7.086,0,0,1,248.6,375.2Z" transform="translate(-240.514 -373.523)" fill="#354258"/>
              <path id="Path_70" data-name="Path 70" d="M261.023,391.2a.874.874,0,0,1,.063.164,7.939,7.939,0,0,1-2.323,1.25l-.063-.164A7.94,7.94,0,0,0,261.023,391.2Z" transform="translate(-251.611 -387.503)" fill="#354258"/>
              <path id="Path_71" data-name="Path 71" d="M265.421,407a2.043,2.043,0,0,1-.013.278c-.063.063-.114.126-.177.189a5.954,5.954,0,0,1-1.868,1.262l-.063-.164A5.636,5.636,0,0,0,265.421,407Z" transform="translate(-255.631 -401.309)" fill="#354258"/>
              <path id="Path_72" data-name="Path 72" d="M259.2,423.389a7.544,7.544,0,0,0,2.222-1.489c-.025.063-.063.126-.088.189-.025.038-.038.076-.063.114-.038.063-.076.114-.114.177h0a7.463,7.463,0,0,1-1.881,1.174Z" transform="translate(-252.048 -414.328)" fill="#354258"/>
              <path id="Path_73" data-name="Path 73" d="M209.376,372.454a6.608,6.608,0,0,1,1,3.421,3.707,3.707,0,0,1-1,2.638c-1.186,1.2-2.865.467-3.951-.467a8.685,8.685,0,0,1-2.222-3.055c-.745-1.717-1.414-5.112,1.237-5.466a3.537,3.537,0,0,1,1.691.227c.189.076.366.151.555.24A6.82,6.82,0,0,1,209.376,372.454Z" transform="translate(-202.54 -368.543)" fill="#354258"/>
              <path id="Path_74" data-name="Path 74" d="M210.454,374.83a6.376,6.376,0,0,1,1.06,3.383,3.391,3.391,0,0,1-.48,1.8,2.647,2.647,0,0,1-.328.417l-.076.076a2.094,2.094,0,0,1-.4.278h0a2.5,2.5,0,0,1-2.36-.328c-.076-.038-.139-.088-.2-.126a5.922,5.922,0,0,1-.631-.48,8.7,8.7,0,0,1-1.351-1.515c-.05-.063-.088-.126-.139-.2a8.636,8.636,0,0,1-.682-1.2c-.139-.29-.265-.631-.391-.985l-.076-.227a5.333,5.333,0,0,1-.24-2.2,1.963,1.963,0,0,1,.05-.265,1.6,1.6,0,0,1,1.351-1.287c.076-.013.151-.025.24-.038a3.361,3.361,0,0,1,1.4.215,6.8,6.8,0,0,1,.694.3A7.1,7.1,0,0,1,210.454,374.83Z" transform="translate(-203.92 -370.666)" fill="#557983"/>
              <path id="Path_75" data-name="Path 75" d="M207.177,380.738l-.05.227a5.706,5.706,0,0,0-2.726.139,1.957,1.957,0,0,1,.05-.265A6.026,6.026,0,0,1,207.177,380.738Z" transform="translate(-204.165 -378.266)" fill="#6a97a0"/>
              <path id="Path_76" data-name="Path 76" d="M209,395.3l.05.24a11.577,11.577,0,0,0-2.575.833l-.076-.227A11.19,11.19,0,0,1,209,395.3Z" transform="translate(-205.913 -391.086)" fill="#6a97a0"/>
              <path id="Path_77" data-name="Path 77" d="M218.063,409.1l.126.2a30.416,30.416,0,0,1-2.651,1.5c-.051-.063-.088-.126-.139-.2C216.309,410.148,217.2,409.643,218.063,409.1Z" transform="translate(-213.777 -403.144)" fill="#6a97a0"/>
              <path id="Path_78" data-name="Path 78" d="M234.206,419a11.069,11.069,0,0,1-1.7,2.474c-.076-.038-.139-.088-.2-.126A10.641,10.641,0,0,0,234,418.9Z" transform="translate(-228.544 -411.707)" fill="#6a97a0"/>
              <path id="Path_79" data-name="Path 79" d="M253.006,420.7a3.85,3.85,0,0,1-.2,2.411,2.092,2.092,0,0,1-.4.278,3.661,3.661,0,0,0,.366-2.625Z" transform="translate(-246.106 -413.28)" fill="#6a97a0"/>
              <path id="Path_80" data-name="Path 80" d="M227.674,376.463a7.054,7.054,0,0,1,1.01,2.613,5.275,5.275,0,0,1,.063.77,1.68,1.68,0,0,1-1.174.328,2.992,2.992,0,0,1-1.25-.454,5.323,5.323,0,0,1-2.436-3.6,3.157,3.157,0,0,1,.152-1.78,1.62,1.62,0,0,1,.379-.543,4.57,4.57,0,0,1,.568.252c.038.025.088.038.126.063A6.82,6.82,0,0,1,227.674,376.463Z" transform="translate(-221.14 -372.299)" fill="#84cdc3"/>
              <path id="Path_81" data-name="Path 81" d="M229.839,377.949a7.055,7.055,0,0,1,1.01,2.613.551.551,0,0,1-.177.164.766.766,0,0,1-.77-.038,3.038,3.038,0,0,1-.518-.467c-.164-.164-.2-.038-.4-.1.063.139.151.29.215.429a.274.274,0,0,1,.05.215c-.038.126-.215.126-.341.088a1.646,1.646,0,0,1-1.174-1.325c-.013-.088-.013-.2.076-.252s.2.038.278.114a5.808,5.808,0,0,1-.4-.568c-.076-.126-.29-.467-.265-.618-.025.126-.063.265-.177.316-.139.063-.29-.038-.391-.151a2.055,2.055,0,0,1-.53-1.616.675.675,0,0,1,.063-.227.382.382,0,0,1,.492-.063,1.146,1.146,0,0,1,.341.429c-.013-.29-.126-.53-.151-.833a1.042,1.042,0,0,1,.1-.555c.038.025.088.038.126.063A7.318,7.318,0,0,1,229.839,377.949Z" transform="translate(-223.306 -373.785)" fill="#acddda"/>
            </g>
            <g id="Group_140" data-name="Group 140" transform="translate(10.338 7.459)">
              <path id="Path_82" data-name="Path 82" d="M279.928,381.526a3.451,3.451,0,0,1,.379.53.587.587,0,0,1,.063.126,2.5,2.5,0,0,1,.29,1.136,1.525,1.525,0,0,1-.013.252h0a1.055,1.055,0,0,1-.05.265,3.384,3.384,0,0,1-1.022,1.275L277,381.3a2.912,2.912,0,0,1,2.323-.24,2.038,2.038,0,0,1,.227.126A1.886,1.886,0,0,1,279.928,381.526Z" transform="translate(-276.306 -380.894)" fill="#3d4d62"/>
              <path id="Path_83" data-name="Path 83" d="M284.967,382.326a3.128,3.128,0,0,0-1.691.543l-.076-.114a3.25,3.25,0,0,1,1.54-.555A2.045,2.045,0,0,1,284.967,382.326Z" transform="translate(-281.723 -382.035)" fill="#354258"/>
              <path id="Path_84" data-name="Path 84" d="M294.55,390.1a.59.59,0,0,1,.063.126,7.8,7.8,0,0,1-1.262.618l-.051-.126A9.593,9.593,0,0,0,294.55,390.1Z" transform="translate(-290.548 -388.938)" fill="#354258"/>
              <path id="Path_85" data-name="Path 85" d="M298.049,400.1a1.529,1.529,0,0,1-.013.253h0a2.774,2.774,0,0,1-.252.29,3.167,3.167,0,0,1-.82.593l-.063-.126A2.869,2.869,0,0,0,298.049,400.1Z" transform="translate(-293.694 -397.676)" fill="#354258"/>
              <path id="Path_86" data-name="Path 86" d="M271.5,384.63a1.011,1.011,0,0,1,.808-1.073,2.023,2.023,0,0,1,1.742.694c.719.682,1.717,3.143.126,3.484a2.005,2.005,0,0,1-1.78-.909A3.9,3.9,0,0,1,271.5,384.63Z" transform="translate(-271.5 -383.19)" fill="#354258"/>
              <path id="Path_87" data-name="Path 87" d="M275.119,385.635a3.521,3.521,0,0,1,.884,2.045.963.963,0,0,1-.77,1.111,1.07,1.07,0,0,1-.656-.076.955.955,0,0,1-.227-.114,3.044,3.044,0,0,1-.745-.644,2.468,2.468,0,0,1-.24-.328c-.038-.063-.088-.126-.126-.2a3.085,3.085,0,0,1-.442-1.452v-.013a1.881,1.881,0,0,1,.025-.265.9.9,0,0,1,.707-.707,1.292,1.292,0,0,1,.492-.013A2.562,2.562,0,0,1,275.119,385.635Z" transform="translate(-272.632 -384.447)" fill="#557983"/>
              <path id="Path_88" data-name="Path 88" d="M273.9,388.9l.038.24a7.093,7.093,0,0,0-1.136.278,1.887,1.887,0,0,1,.025-.265A6.61,6.61,0,0,1,273.9,388.9Z" transform="translate(-272.636 -387.889)" fill="#6a97a0"/>
              <path id="Path_89" data-name="Path 89" d="M277.562,399.2l.076.227a4.331,4.331,0,0,0-1.212.656c-.038-.063-.088-.126-.126-.2A4.391,4.391,0,0,1,277.562,399.2Z" transform="translate(-275.694 -396.889)" fill="#6a97a0"/>
              <path id="Path_90" data-name="Path 90" d="M286.173,404.2a5.961,5.961,0,0,1-.846,1.237.957.957,0,0,1-.227-.114,5.486,5.486,0,0,0,.858-1.224Z" transform="translate(-283.383 -401.171)" fill="#6a97a0"/>
              <path id="Path_91" data-name="Path 91" d="M282.2,385.931a3.6,3.6,0,0,1,.858,1.818c.013.076.013.152.025.215a1.17,1.17,0,0,1-.417.038,1.383,1.383,0,0,1-.328-.076,2.219,2.219,0,0,1-.745-.48,2.364,2.364,0,0,1-.543-.858,1.552,1.552,0,0,1-.1-1.01,1.011,1.011,0,0,1,.164-.278,1.649,1.649,0,0,1,.417.151A2.581,2.581,0,0,1,282.2,385.931Z" transform="translate(-279.718 -384.744)" fill="#84cdc3"/>
              <path id="Path_92" data-name="Path 92" d="M286.487,386.892a3.6,3.6,0,0,1,.858,1.818,1.177,1.177,0,0,1-1.022-.353.506.506,0,0,1-.177-.379.413.413,0,0,1,.189-.29c-.177-.278-.606-.871-.518-1.287A2.959,2.959,0,0,1,286.487,386.892Z" transform="translate(-284 -385.705)" fill="#acddda"/>
            </g>
          </g>
          <path id="Path_93" data-name="Path 93" d="M191.811,289.587l-5.188.884-.013-.013c-1.654-1.553-4.822-4.519-4.91-4.595l.013-.025V285.8c.013,0,.051,0,4.935,4.595l5.15-.884Z" transform="translate(-178.456 -285.547)" fill="#e4d4c9"/>
          <path id="Path_94" data-name="Path 94" d="M217.982,319.737l-4.456,1.111,1.073,1.275-.05.038L213.4,320.81l4.468-1.123-.682-1.161.063-.025Z" transform="translate(-206.155 -314.12)" fill="#e4d4c9"/>
          <path id="Path_95" data-name="Path 95" d="M159.5,288.388l4.531-.088a18.744,18.744,0,0,0,7.738,5.44l-5.529,2.171Z" transform="translate(-159.058 -287.732)" fill="#c2aed5"/>
        </g>
        <g id="Group_143" data-name="Group 143" transform="translate(0 0)">
          <path id="Path_96" data-name="Path 96" d="M247.47,293.2h0q-1-.038-2.007,0l-.025-.013c-.076-.025-.139-.05-.215-.076a6.467,6.467,0,0,0-3.534-.1c-.177.038-.341.088-.518.126-.656.164-1.3.328-1.944.5-3.648.972-6.993,2.032-10.111,3.168l.025-.013-1.969-1.237v-.038l-.038.013-4.506-2.84-.429.1,4.721,2.966.038-.013v.038l1.969,1.237-.025.013c3.105-1.136,6.45-2.184,10.111-3.168.631-.164,1.287-.341,1.944-.5.177-.038.341-.088.518-.126a6.468,6.468,0,0,1,3.534.1c.076.025.139.051.215.076l.025.013c.682-.025,1.351-.038,2.007-.013h0a14.9,14.9,0,0,1,2.133.227c-.164.959-1.691,2.916-3.938,5.276,2.373-2.474,3.989-4.519,4.165-5.516C248.9,293.319,248.19,293.243,247.47,293.2Z" transform="translate(-213.844 -291.577)" fill="#fff"/>
          <path id="Path_97" data-name="Path 97" d="M159.042,284.33v-.038s.013,0,.05.038l8.7-.265,1.111-.265-9.593.29c-.038-.038-.038-.038-.05-.038v.038l-3.257.1.151.227Z" transform="translate(-156 -283.8)" fill="#fff"/>
          <path id="Path_98" data-name="Path 98" d="M217.376,433.225l-.025-.025a.046.046,0,1,0,.025.025Z" transform="translate(-209.562 -414.342)" fill="#fff"/>
        </g>
        <g id="Group_145" data-name="Group 145" transform="translate(12.33 9.77)">
          <g id="Group_144" data-name="Group 144">
            <rect id="Rectangle_83" data-name="Rectangle 83" width="6.028" height="6.028" transform="translate(1.394 1.394)" fill="none"/>
            <rect id="Rectangle_84" data-name="Rectangle 84" width="9.058" height="9.058" fill="none" opacity="0.75"/>
          </g>
        </g>
        <path id="Path_99" data-name="Path 99" d="M321.915,320.589c-.3-.025-.606-.05-.909-.063s-.606-.013-.909,0a14.282,14.282,0,0,0-1.805.114l.025-.013c-1.338.921-2.676,1.83-4.039,2.714-.682.442-1.363.871-2.057,1.3l-.518.316-.53.3c-.353.189-.707.391-1.073.568.341-.215.694-.417,1.035-.644.177-.1.341-.215.518-.328s.353-.2.517-.316c.694-.417,1.376-.858,2.057-1.3,1.363-.884,2.7-1.792,4.027-2.714l.013-.013h.013a14.637,14.637,0,0,1,1.818-.114c.3,0,.606.025.909.05S321.624,320.526,321.915,320.589Z" transform="translate(-290.649 -315.78)" fill="#fff"/>
      </g>
      <g id="Group_147" data-name="Group 147" transform="translate(60.624 210.392)">
        <path id="Path_100" data-name="Path 100" d="M178.805,509.3h-.114a1.325,1.325,0,0,0-.379-.568.982.982,0,0,0-.618-.2.971.971,0,0,0-.707.227.781.781,0,0,0-.24.606c0,.316.227.593.669.833.8.442,1.224.682,1.262.719a1.658,1.658,0,0,1,.682,1.376,1.712,1.712,0,0,1-.631,1.363,2.477,2.477,0,0,1-1.628.53,2.934,2.934,0,0,1-.745-.088,2.047,2.047,0,0,1-.656-.29l.151-.568a3.089,3.089,0,0,0,.1-.517h.151a1.282,1.282,0,0,0,.429.694,1.215,1.215,0,0,0,.757.253,1.08,1.08,0,0,0,.707-.227.832.832,0,0,0,.316-.669,1.057,1.057,0,0,0-.669-.909c-.417-.215-.82-.442-1.237-.656a1.646,1.646,0,0,1-.669-1.4,1.712,1.712,0,0,1,.5-1.275,2,2,0,0,1,1.477-.53,2.484,2.484,0,0,1,.82.126,1.431,1.431,0,0,1,.543.29q-.076.208-.151.454A3.949,3.949,0,0,1,178.805,509.3Z" transform="translate(-175.7 -508)" fill="url(#linear-gradient-129)"/>
        <path id="Path_101" data-name="Path 101" d="M213.287,512.82v2.6c-.076,0-.177-.013-.316-.025s-.252-.025-.316-.025-.189.013-.328.025-.252.025-.328.025V509.5h2.121c1.224,0,1.843.492,1.843,1.464a1.6,1.6,0,0,1-.757,1.515A4.3,4.3,0,0,1,213.287,512.82Zm0-2.865v2.373a2.724,2.724,0,0,0,.568-.05,1.008,1.008,0,0,0,.606-.454,1.38,1.38,0,0,0,.177-.719,1.413,1.413,0,0,0-.227-.833.674.674,0,0,0-.581-.316Z" transform="translate(-207.418 -509.311)" fill="url(#linear-gradient-130)"/>
        <path id="Path_102" data-name="Path 102" d="M250.021,513.078h-2.007c-.114.328-.2.555-.24.694-.164.48-.29.846-.366,1.1a.989.989,0,0,1-.177-.025,1.154,1.154,0,0,0-.215-.013,1.448,1.448,0,0,0-.227.013c-.076.013-.139.013-.189.025l2.461-5.97a.666.666,0,0,0,.164.013h.379a.435.435,0,0,1,.114-.013l2.386,5.983a1.542,1.542,0,0,1-.265-.013c-.3-.025-.467-.038-.48-.038a1.534,1.534,0,0,0-.265.013c-.3.025-.467.038-.48.038A16.858,16.858,0,0,0,250.021,513.078Zm-1.767-.53h1.565l-.757-1.994Z" transform="translate(-237.651 -508.786)" fill="url(#linear-gradient-131)"/>
        <path id="Path_103" data-name="Path 103" d="M298.136,513.211l.1.051-.189.745a3.406,3.406,0,0,1-.808.29,4.229,4.229,0,0,1-.9.089,3.39,3.39,0,0,1-2.31-.783,2.693,2.693,0,0,1-.934-2.121,3.1,3.1,0,0,1,1.01-2.474,3.566,3.566,0,0,1,2.411-.808,3.916,3.916,0,0,1,1.755.429l-.189.884h-.126a1.817,1.817,0,0,0-.631-.568,1.508,1.508,0,0,0-.8-.215,1.733,1.733,0,0,0-1.54.846,3.245,3.245,0,0,0-.48,1.792,2.81,2.81,0,0,0,.543,1.818,1.815,1.815,0,0,0,1.515.694,2.183,2.183,0,0,0,.82-.177A2.727,2.727,0,0,0,298.136,513.211Z" transform="translate(-278.281 -508.175)" fill="url(#linear-gradient-132)"/>
        <path id="Path_104" data-name="Path 104" d="M342.513,509.4h3.963q-.019.095-.038.227a1.056,1.056,0,0,0-.013.152c.013.126.038.24.05.366q-.436-.038-1.1-.076c-.442-.025-.858-.038-1.262-.038H343.8v1.855h1.376c.265,0,.467,0,.606-.013s.353-.038.644-.076l-.076.379a.873.873,0,0,0,.025.164,1.051,1.051,0,0,0,.051.189c-.152-.013-.353-.025-.619-.038s-.48-.025-.631-.025H343.8v2.184c.5,0,.985-.013,1.464-.038s.884-.051,1.2-.088c-.013.126-.038.24-.05.366a.894.894,0,0,0,.013.177c.013.063.025.139.038.2H342.5V509.4Z" transform="translate(-321.446 -509.223)" fill="url(#linear-gradient-133)"/>
        <path id="Path_105" data-name="Path 105" d="M385.96,509.4l-.846,1.174-1,1.426.126.189c.278.5.568,1.022.846,1.527s.568,1.048.833,1.6c-.088,0-.215-.013-.379-.025s-.29-.025-.379-.025a1.534,1.534,0,0,0-.265.013c-.3.025-.454.038-.467.038-.151-.3-.328-.669-.555-1.111-.265-.492-.454-.846-.581-1.1l-.8,1.237q-.151.227-.3.492c-.1.177-.177.328-.24.442a1.258,1.258,0,0,0-.2-.025c-.063,0-.139-.013-.227-.013a1.371,1.371,0,0,0-.227.013c-.088.013-.151.013-.2.025.719-1.022,1.338-1.931,1.855-2.739l-1.742-3.143c.088,0,.215.013.379.025s.29.025.379.025.215-.013.391-.025.3-.025.379-.025c.151.328.366.757.656,1.3.139.265.278.53.417.783L385.1,509.4c.114.013.189.025.24.025h.189a1.53,1.53,0,0,0,.227-.013A.9.9,0,0,0,385.96,509.4Z" transform="translate(-355.174 -509.223)" fill="url(#linear-gradient-134)"/>
      </g>
    </g>
  </g>
</svg>
